<svg width="190" height="115" viewBox="0 0 190 115" fill="none" xmlns="http://www.w3.org/2000/svg">
<g clip-path="url(#clip0_47_55)">
<path d="M169.05 88.8145C169.541 89.2311 170.092 89.5798 170.694 89.8087C170.698 89.8104 170.703 89.8122 170.708 89.8139C171.993 90.2983 173.485 90.3993 174.69 89.646C174.7 89.6395 174.709 89.6312 174.719 89.6246C174.73 89.6183 174.741 89.6141 174.752 89.6076C175.957 88.8542 176.52 87.4692 176.648 86.1016C176.648 86.0967 176.649 86.0918 176.649 86.0869C176.707 85.4454 176.635 84.7973 176.476 84.1732C175.451 80.154 179.927 75.2413 175.327 72.6511C173.055 71.4919 169.948 73.9495 168.691 76.1898C168.373 76.7378 168.032 77.4265 167.484 77.8476C167.445 77.8498 167.404 77.8531 167.365 77.8557C167.345 77.89 167.324 77.9252 167.305 77.9591C166.686 78.2673 165.918 78.2724 165.286 78.3174C162.721 78.4657 159.15 80.1814 159.197 82.7318C159.509 88.0014 165.886 86.1315 169.05 88.8145Z" fill="#f7cfda" fill-opacity="0.45"/>
<path d="M163.111 89.4996C161.922 90.2429 161.763 92.1344 162.757 93.7244C163.751 95.3144 165.52 96.0009 166.71 95.2576C167.899 94.5144 168.057 92.6229 167.064 91.0329C166.07 89.4428 164.3 88.7564 163.111 89.4996Z" fill="#f7cfda" fill-opacity="0.45"/>
<path d="M171.157 92.2613C169.836 93.0868 169.66 95.1876 170.764 96.9535C171.867 98.7195 173.833 99.4819 175.154 98.6564C176.475 97.8309 176.651 95.7302 175.547 93.9642C174.444 92.1982 172.478 91.4358 171.157 92.2613Z" fill="#f7cfda" fill-opacity="0.45"/>
<path d="M179.369 79.1229C178.179 79.8662 178.021 81.7577 179.014 83.3477C180.008 84.9377 181.778 85.6242 182.967 84.8809C184.156 84.1377 184.315 82.2462 183.321 80.6562C182.327 79.0661 180.558 78.3797 179.369 79.1229Z" fill="#f7cfda" fill-opacity="0.45"/>
<path d="M178.422 87.7214C177.101 88.5469 176.925 90.6477 178.028 92.4136C179.132 94.1796 181.097 94.942 182.418 94.1165C183.739 93.291 183.915 91.1902 182.812 89.4243C181.708 87.6583 179.743 86.8959 178.422 87.7214Z" fill="#f7cfda" fill-opacity="0.45"/>
</g>
<g clip-path="url(#clip1_47_55)">
<path d="M111.481 97.4448C112.353 97.5803 113.247 97.5937 114.115 97.4304C114.122 97.4291 114.128 97.4279 114.135 97.4266C115.984 97.073 117.8 96.1235 118.671 94.3799C118.678 94.3648 118.682 94.349 118.69 94.3339C118.697 94.3189 118.708 94.306 118.715 94.2909C119.585 92.5474 119.252 90.5252 118.423 88.8348C118.42 88.8287 118.417 88.8226 118.414 88.8165C118.023 88.0249 117.475 87.3188 116.842 86.7031C112.767 82.7377 114.483 73.7906 107.252 74.0546C103.766 74.3256 101.892 79.4228 102.025 82.9419C102.047 83.8097 102.14 84.8592 101.801 85.7439C101.757 85.7742 101.712 85.8073 101.668 85.8386C101.669 85.8928 101.67 85.9489 101.672 86.0021C101.169 86.8053 100.274 87.3613 99.568 87.8661C96.6756 89.875 93.7288 94.4367 95.6081 97.3854C99.7447 103.323 105.862 96.5723 111.481 97.4448Z" fill="#f7cfda" fill-opacity="0.6"/>
<path d="M105.029 102.496C104.17 104.216 105.339 106.541 107.638 107.689C109.938 108.837 112.498 108.373 113.357 106.653C114.215 104.932 113.047 102.607 110.747 101.46C108.447 100.312 105.887 100.776 105.029 102.496Z" fill="#f7cfda" fill-opacity="0.6"/>
<path d="M116.412 99.966C115.459 101.876 116.756 104.459 119.311 105.733C121.865 107.008 124.708 106.493 125.662 104.582C126.615 102.672 125.318 100.09 122.763 98.8148C120.209 97.5401 117.366 98.0555 116.412 99.966Z" fill="#f7cfda" fill-opacity="0.6"/>
<path d="M116.609 78.7286C115.75 80.4488 116.919 82.7737 119.218 83.9214C121.518 85.0692 124.078 84.6051 124.937 82.8849C125.795 81.1647 124.627 78.8398 122.327 77.6921C120.027 76.5443 117.467 77.0084 116.609 78.7286Z" fill="#f7cfda" fill-opacity="0.6"/>
<path d="M121.656 89.4589C120.702 91.3694 122 93.9516 124.554 95.2263C127.109 96.501 129.952 95.9856 130.906 94.0751C131.859 92.1646 130.561 89.5825 128.007 88.3077C125.453 87.033 122.609 87.5484 121.656 89.4589Z" fill="#f7cfda" fill-opacity="0.6"/>
</g>
<g clip-path="url(#clip2_47_55)">
<path d="M113.297 37.0438C114.476 37.2241 115.682 37.2396 116.853 37.0163C116.862 37.0146 116.871 37.0129 116.88 37.0111C119.376 36.5281 121.826 35.2405 122.996 32.8836C123.006 32.8632 123.011 32.8418 123.021 32.8214C123.032 32.8012 123.045 32.7837 123.055 32.7633C124.225 30.4065 123.769 27.677 122.644 25.397C122.64 25.3888 122.636 25.3806 122.632 25.3724C122.102 24.3047 121.359 23.3529 120.503 22.5234C114.989 17.1815 117.279 5.09543 107.516 5.47382C102.809 5.85024 100.295 12.7385 100.486 17.4898C100.517 18.6615 100.647 20.0783 100.191 21.2739C100.132 21.315 100.071 21.3598 100.011 21.4021C100.014 21.4753 100.015 21.5511 100.018 21.6229C99.3412 22.709 98.1343 23.4624 97.1823 24.1461C93.2829 26.8675 89.3178 33.0359 91.8643 37.0118C97.4678 45.0164 105.708 35.8827 113.297 37.0438Z" fill="#f7cfda" fill-opacity="0.85"/>
<path d="M104.6 43.8839C103.446 46.2092 105.031 49.3449 108.139 50.8877C111.248 52.4304 114.704 51.7961 115.858 49.4708C117.012 47.1455 115.427 44.0098 112.318 42.4671C109.21 40.9243 105.754 41.5586 104.6 43.8839Z" fill="#f7cfda" fill-opacity="0.85"/>
<path d="M119.963 40.4331C118.681 43.0157 120.441 46.4983 123.894 48.2118C127.347 49.9253 131.185 49.2208 132.466 46.6382C133.748 44.0556 131.988 40.573 128.535 38.8595C125.083 37.146 121.245 37.8506 119.963 40.4331Z" fill="#f7cfda" fill-opacity="0.85"/>
<path d="M120.164 11.7565C119.01 14.0818 120.595 17.2174 123.703 18.7602C126.812 20.303 130.268 19.6687 131.422 17.3434C132.576 15.0181 130.991 11.8824 127.882 10.3396C124.774 8.79683 121.318 9.43118 120.164 11.7565Z" fill="#f7cfda" fill-opacity="0.85"/>
<path d="M127.012 26.2299C125.73 28.8125 127.49 32.2951 130.943 34.0086C134.395 35.7221 138.233 35.0175 139.515 32.435C140.797 29.8524 139.037 26.3697 135.584 24.6563C132.131 22.9428 128.293 23.6473 127.012 26.2299Z" fill="#f7cfda" fill-opacity="0.85"/>
</g>
<g clip-path="url(#clip3_47_55)">
<path d="M31.9045 59.9632C33.1132 60.9548 34.464 61.7794 35.9343 62.3109C35.9456 62.315 35.9569 62.3191 35.9682 62.3231C39.1067 63.4478 42.7308 63.6337 45.6265 61.7576C45.6515 61.7414 45.6723 61.7211 45.6971 61.7046C45.7222 61.6887 45.7492 61.6781 45.7743 61.6619C48.67 59.7858 49.9813 56.4021 50.2375 53.0781C50.2385 53.0661 50.2394 53.0541 50.2402 53.0421C50.356 51.483 50.1555 49.9131 49.7445 48.4048C47.0973 38.691 57.765 26.5907 46.499 20.487C40.9386 17.7637 33.4951 23.8515 30.5325 29.3384C29.7842 30.6809 28.983 32.3659 27.6691 33.4096C27.5751 33.4165 27.4763 33.4262 27.3806 33.434C27.3343 33.5181 27.2851 33.6044 27.2404 33.6874C25.7508 34.46 23.8856 34.5026 22.3545 34.637C16.136 35.0985 7.53781 39.4041 7.75093 45.5918C8.71741 58.3685 24.1208 53.5775 31.9045 59.9632Z" fill="#f7cfda"/>
<path d="M17.5196 61.8616C14.6627 63.7125 14.3528 68.3093 16.8274 72.1288C19.302 75.9482 23.6241 77.544 26.4809 75.693C29.3378 73.8421 29.6477 69.2453 27.1731 65.4258C24.6985 61.6064 20.3764 60.0106 17.5196 61.8616Z" fill="#f7cfda"/>
<path d="M37.1563 68.2447C33.9834 70.3005 33.6392 75.4059 36.3876 79.648C39.136 83.89 43.9363 85.6624 47.1093 83.6066C50.2823 81.5508 50.6265 76.4454 47.878 72.2033C45.1296 67.9613 40.3293 66.1889 37.1563 68.2447Z" fill="#f7cfda"/>
<path d="M56.5634 36.0334C53.7065 37.8844 53.3966 42.4812 55.8712 46.3007C58.3459 50.1201 62.6679 51.7159 65.5248 49.8649C68.3817 48.0139 68.6916 43.4171 66.217 39.5977C63.7423 35.7782 59.4203 34.1824 56.5634 36.0334Z" fill="#f7cfda"/>
<path d="M54.6067 56.9387C51.4337 58.9945 51.0895 64.0999 53.838 68.3419C56.5864 72.584 61.3866 74.3563 64.5596 72.3006C67.7326 70.2448 68.0768 65.1394 65.3284 60.8973C62.5799 56.6552 57.7797 54.8829 54.6067 56.9387Z" fill="#f7cfda"/>
</g>
<defs>
<clipPath id="clip0_47_55">
<rect width="24.3646" height="23.5021" fill="white" transform="translate(189.117 89.9303) rotate(147.997)"/>
</clipPath>
<clipPath id="clip1_47_55">
<rect width="33.3993" height="32.217" fill="white" transform="translate(135.741 84.3865) rotate(116.522)"/>
</clipPath>
<clipPath id="clip2_47_55">
<rect width="45.0978" height="43.5014" fill="white" transform="translate(146.015 19.3381) rotate(116.394)"/>
</clipPath>
<clipPath id="clip3_47_55">
<rect width="59.1389" height="57.0455" fill="white" transform="translate(80.6506 61.8752) rotate(147.061)"/>
</clipPath>
</defs>
</svg>
