<svg width="430" height="670" viewBox="0 0 430 670" fill="none" xmlns="http://www.w3.org/2000/svg">
<g clip-path="url(#clip0_106_512)">
<path d="M209.314 651.271C209.42 651.895 209.44 652.536 209.332 653.161C209.331 653.165 209.331 653.17 209.33 653.175C209.096 654.506 208.435 655.82 207.194 656.463C207.183 656.469 207.172 656.472 207.161 656.478C207.15 656.483 207.141 656.491 207.13 656.496C205.889 657.14 204.434 656.923 203.212 656.347C203.207 656.345 203.203 656.342 203.199 656.34C202.626 656.068 202.114 655.683 201.665 655.236C198.775 652.355 192.373 653.686 192.483 648.494C192.639 645.989 196.276 644.588 198.803 644.645C199.426 644.651 200.18 644.707 200.811 644.453C200.832 644.422 200.855 644.389 200.877 644.357C200.916 644.357 200.956 644.357 200.995 644.358C201.565 643.988 201.955 643.34 202.309 642.828C203.719 640.73 206.959 638.565 209.096 639.881C213.402 642.784 208.626 647.248 209.314 651.271Z" fill="#f7cfda" fill-opacity="0.3"/>
<path d="M212.867 646.585C214.092 645.95 215.773 646.763 216.622 648.4C217.471 650.038 217.166 651.88 215.941 652.515C214.716 653.15 213.035 652.337 212.186 650.7C211.337 649.062 211.642 647.22 212.867 646.585Z" fill="#f7cfda" fill-opacity="0.3"/>
<path d="M211.177 654.781C212.537 654.076 214.405 654.979 215.347 656.797C216.29 658.616 215.952 660.662 214.591 661.368C213.231 662.073 211.364 661.17 210.421 659.351C209.478 657.533 209.817 655.487 211.177 654.781Z" fill="#f7cfda" fill-opacity="0.3"/>
<path d="M195.94 655.156C197.165 654.521 198.846 655.334 199.695 656.972C200.544 658.609 200.239 660.452 199.014 661.087C197.789 661.722 196.108 660.909 195.259 659.271C194.41 657.634 194.715 655.791 195.94 655.156Z" fill="#f7cfda" fill-opacity="0.3"/>
<path d="M203.695 658.66C205.056 657.954 206.923 658.857 207.866 660.676C208.809 662.495 208.47 664.541 207.11 665.246C205.749 665.951 203.882 665.049 202.939 663.23C201.996 661.411 202.335 659.365 203.695 658.66Z" fill="#f7cfda" fill-opacity="0.3"/>
</g>
<g clip-path="url(#clip1_106_512)">
<path d="M254.4 608.109C254.141 608.675 253.803 609.206 253.371 609.653C253.368 609.656 253.365 609.66 253.361 609.663C252.437 610.614 251.175 611.314 249.813 611.151C249.801 611.15 249.79 611.146 249.778 611.144C249.767 611.143 249.755 611.144 249.743 611.143C248.381 610.979 247.321 610 246.647 608.858C246.645 608.854 246.643 608.85 246.64 608.846C246.326 608.309 246.123 607.713 246.006 607.103C245.252 603.17 239.325 600.715 242.28 596.564C243.79 594.619 247.513 595.491 249.531 596.932C250.033 597.28 250.614 597.742 251.266 597.885C251.301 597.871 251.338 597.857 251.374 597.843C251.405 597.865 251.437 597.887 251.468 597.909C252.135 597.924 252.809 597.613 253.379 597.393C255.681 596.47 259.505 596.503 260.511 598.751C262.402 603.483 256.062 604.467 254.4 608.109Z" fill="#f7cfda" fill-opacity="0.3"/>
<path d="M259.869 606.27C261.213 606.431 262.128 608.019 261.913 609.816C261.697 611.613 260.433 612.939 259.089 612.778C257.745 612.617 256.83 611.029 257.045 609.232C257.261 607.435 258.525 606.109 259.869 606.27Z" fill="#f7cfda" fill-opacity="0.3"/>
<path d="M253.973 611.986C255.466 612.165 256.482 613.928 256.243 615.924C256.003 617.92 254.599 619.393 253.106 619.214C251.613 619.035 250.597 617.271 250.836 615.276C251.076 613.28 252.48 611.807 253.973 611.986Z" fill="#f7cfda" fill-opacity="0.3"/>
<path d="M241.406 603.877C242.75 604.039 243.665 605.626 243.45 607.423C243.234 609.22 241.97 610.546 240.626 610.385C239.281 610.224 238.366 608.636 238.582 606.839C238.797 605.042 240.062 603.716 241.406 603.877Z" fill="#f7cfda" fill-opacity="0.3"/>
<path d="M245.763 611.001C247.255 611.18 248.272 612.943 248.032 614.939C247.793 616.935 246.389 618.408 244.896 618.229C243.403 618.05 242.387 616.287 242.626 614.291C242.865 612.295 244.27 610.822 245.763 611.001Z" fill="#f7cfda" fill-opacity="0.3"/>
</g>
<g clip-path="url(#clip2_106_512)">
<path d="M226.222 560.941C226.409 561.805 226.476 562.697 226.364 563.574C226.363 563.58 226.363 563.587 226.362 563.594C226.118 565.463 225.277 567.334 223.587 568.307C223.573 568.315 223.557 568.32 223.542 568.329C223.528 568.337 223.515 568.348 223.501 568.356C221.811 569.329 219.77 569.117 218.032 568.389C218.026 568.386 218.019 568.383 218.013 568.381C217.199 568.037 216.461 567.531 215.808 566.936C211.604 563.1 202.766 565.347 202.6 558.106C202.664 554.606 207.645 552.431 211.17 552.355C212.038 552.325 213.092 552.356 213.956 551.964C213.984 551.919 214.014 551.872 214.042 551.826C214.097 551.824 214.153 551.822 214.206 551.82C214.979 551.27 215.481 550.343 215.943 549.607C217.779 546.598 222.162 543.383 225.22 545.085C231.398 548.865 225.016 555.379 226.222 560.941Z" fill="#f7cfda" fill-opacity="0.5"/>
<path d="M230.886 554.194C232.553 553.234 234.946 554.263 236.229 556.493C237.513 558.722 237.201 561.308 235.534 562.268C233.866 563.228 231.473 562.199 230.19 559.969C228.907 557.74 229.218 555.154 230.886 554.194Z" fill="#f7cfda" fill-opacity="0.5"/>
<path d="M229.034 565.718C230.886 564.652 233.544 565.795 234.969 568.271C236.394 570.748 236.049 573.619 234.196 574.686C232.344 575.752 229.687 574.609 228.262 572.132C226.836 569.656 227.182 566.784 229.034 565.718Z" fill="#f7cfda" fill-opacity="0.5"/>
<path d="M207.826 567.177C209.494 566.217 211.886 567.246 213.17 569.475C214.453 571.705 214.142 574.291 212.474 575.251C210.806 576.211 208.414 575.182 207.131 572.952C205.847 570.722 206.159 568.137 207.826 567.177Z" fill="#f7cfda" fill-opacity="0.5"/>
<path d="M218.848 571.582C220.7 570.516 223.357 571.659 224.782 574.135C226.208 576.611 225.862 579.483 224.01 580.549C222.157 581.616 219.5 580.473 218.075 577.996C216.649 575.52 216.995 572.648 218.848 571.582Z" fill="#f7cfda" fill-opacity="0.5"/>
</g>
<g clip-path="url(#clip3_106_512)">
<path d="M306.237 530.109C306.163 531.192 305.937 532.267 305.506 533.264C305.503 533.271 305.5 533.279 305.496 533.287C304.571 535.409 302.941 537.33 300.614 537.901C300.594 537.906 300.574 537.907 300.554 537.911C300.534 537.916 300.516 537.925 300.496 537.93C298.169 538.501 295.834 537.554 294.032 536.102C294.025 536.097 294.019 536.091 294.012 536.086C293.169 535.403 292.471 534.554 291.904 533.629C288.252 527.668 277.058 527.303 279.333 518.703C280.602 514.595 287.222 513.729 291.406 514.842C292.441 515.103 293.674 515.499 294.827 515.332C294.875 515.287 294.927 515.242 294.977 515.197C295.041 515.214 295.108 515.23 295.172 515.247C296.271 514.862 297.18 513.939 297.977 513.229C301.169 510.304 307.438 508.006 310.465 511.058C316.465 517.627 306.712 523.135 306.237 530.109Z" fill="#f7cfda" fill-opacity="0.5"/>
<path d="M314.042 523.739C316.338 523.176 318.809 525.207 319.563 528.275C320.316 531.344 319.066 534.289 316.771 534.852C314.476 535.416 312.004 533.385 311.25 530.316C310.497 527.248 311.747 524.303 314.042 523.739Z" fill="#f7cfda" fill-opacity="0.5"/>
<path d="M307.925 536.705C310.474 536.079 313.219 538.335 314.056 541.743C314.893 545.151 313.505 548.422 310.956 549.048C308.406 549.674 305.661 547.418 304.824 544.01C303.987 540.602 305.376 537.331 307.925 536.705Z" fill="#f7cfda" fill-opacity="0.5"/>
<path d="M282.404 531.189C284.699 530.625 287.171 532.656 287.924 535.725C288.678 538.794 287.428 541.738 285.132 542.302C282.837 542.865 280.365 540.835 279.612 537.766C278.858 534.697 280.108 531.753 282.404 531.189Z" fill="#f7cfda" fill-opacity="0.5"/>
<path d="M293.904 540.148C296.454 539.522 299.199 541.777 300.036 545.186C300.873 548.594 299.484 551.864 296.935 552.49C294.386 553.116 291.641 550.861 290.804 547.453C289.967 544.044 291.355 540.774 293.904 540.148Z" fill="#f7cfda" fill-opacity="0.5"/>
</g>
<g clip-path="url(#clip4_106_512)">
<path d="M304.06 454.278C304.758 455.225 305.325 456.272 305.666 457.398C305.669 457.407 305.672 457.415 305.674 457.424C306.396 459.826 306.394 462.556 304.871 464.658C304.858 464.676 304.842 464.691 304.828 464.709C304.815 464.727 304.806 464.747 304.793 464.765C303.27 466.868 300.677 467.72 298.169 467.783C298.16 467.783 298.151 467.783 298.142 467.783C296.966 467.809 295.794 467.597 294.677 467.229C287.483 464.86 277.973 472.401 273.829 463.697C272.001 459.413 276.866 454.059 281.105 452.048C282.143 451.538 283.44 451.002 284.276 450.056C284.284 449.985 284.296 449.912 284.305 449.84C284.37 449.808 284.437 449.775 284.501 449.745C285.14 448.656 285.245 447.256 285.406 446.111C285.996 441.457 289.568 435.165 294.209 435.568C303.77 436.795 299.567 448.18 304.06 454.278Z" fill="#f7cfda" fill-opacity="0.5"/>
<path d="M306.05 443.545C307.553 441.471 311.018 441.418 313.791 443.427C316.564 445.436 317.594 448.746 316.091 450.82C314.588 452.894 311.123 452.946 308.35 450.938C305.577 448.929 304.547 445.619 306.05 443.545Z" fill="#f7cfda" fill-opacity="0.5"/>
<path d="M310.077 458.549C311.745 456.245 315.595 456.187 318.674 458.418C321.754 460.649 322.897 464.325 321.229 466.628C319.56 468.932 315.71 468.99 312.631 466.759C309.551 464.528 308.408 460.852 310.077 458.549Z" fill="#f7cfda" fill-opacity="0.5"/>
<path d="M285.115 471.868C286.618 469.794 290.084 469.741 292.856 471.75C295.629 473.759 296.659 477.069 295.156 479.142C293.653 481.216 290.188 481.269 287.415 479.26C284.642 477.251 283.612 473.942 285.115 471.868Z" fill="#f7cfda" fill-opacity="0.5"/>
<path d="M300.898 471.217C302.567 468.913 306.417 468.855 309.496 471.086C312.576 473.317 313.719 476.993 312.05 479.296C310.381 481.6 306.532 481.658 303.453 479.427C300.373 477.196 299.23 473.52 300.898 471.217Z" fill="#f7cfda" fill-opacity="0.5"/>
</g>
<g clip-path="url(#clip5_106_512)">
<path d="M375.56 418.868C375.247 420.258 374.737 421.607 373.978 422.813C373.972 422.822 373.966 422.831 373.96 422.841C372.334 425.407 369.832 427.571 366.699 427.844C366.672 427.847 366.646 427.844 366.619 427.846C366.592 427.849 366.567 427.856 366.54 427.858C363.407 428.132 360.568 426.433 358.522 424.187C358.515 424.179 358.507 424.171 358.5 424.163C357.543 423.107 356.808 421.866 356.259 420.551C352.721 412.084 338.272 409.36 342.953 398.66C345.426 393.588 354.188 393.795 359.391 396.08C360.681 396.626 362.201 397.389 363.731 397.403C363.802 397.356 363.878 397.307 363.952 397.259C364.032 397.294 364.116 397.328 364.194 397.363C365.698 397.084 367.063 396.07 368.239 395.309C372.969 392.157 381.563 390.436 384.876 395.004C391.338 404.732 377.579 409.916 375.56 418.868Z" fill="#f7cfda" fill-opacity="0.7"/>
<path d="M386.966 412.174C390.057 411.905 392.855 415.036 393.215 419.169C393.576 423.301 391.362 426.869 388.271 427.139C385.18 427.408 382.382 424.277 382.022 420.145C381.662 416.012 383.875 412.444 386.966 412.174Z" fill="#f7cfda" fill-opacity="0.7"/>
<path d="M376.423 427.764C379.856 427.464 382.964 430.942 383.364 435.532C383.764 440.122 381.306 444.085 377.873 444.384C374.44 444.684 371.332 441.206 370.932 436.616C370.532 432.027 372.99 428.063 376.423 427.764Z" fill="#f7cfda" fill-opacity="0.7"/>
<path d="M344.426 415.476C347.517 415.206 350.315 418.338 350.675 422.47C351.035 426.602 348.822 430.171 345.731 430.44C342.64 430.71 339.842 427.579 339.482 423.446C339.121 419.314 341.335 415.745 344.426 415.476Z" fill="#f7cfda" fill-opacity="0.7"/>
<path d="M357.543 429.41C360.976 429.111 364.084 432.589 364.484 437.178C364.884 441.768 362.426 445.731 358.993 446.031C355.56 446.33 352.452 442.852 352.052 438.263C351.652 433.673 354.11 429.71 357.543 429.41Z" fill="#f7cfda" fill-opacity="0.7"/>
</g>
<g clip-path="url(#clip6_106_512)">
<path d="M289.293 365.723C290.285 367.143 291.081 368.705 291.543 370.374C291.547 370.387 291.551 370.4 291.554 370.413C292.529 373.975 292.427 377.995 290.108 381.034C290.088 381.06 290.064 381.081 290.043 381.107C290.024 381.134 290.01 381.163 289.99 381.189C287.671 384.228 283.822 385.389 280.128 385.389C280.115 385.389 280.101 385.389 280.088 385.389C278.356 385.385 276.639 385.03 275.007 384.447C264.502 380.697 250.228 391.452 244.444 378.488C241.908 372.114 249.266 364.409 255.579 361.603C257.126 360.891 259.055 360.149 260.32 358.786C260.336 358.683 260.355 358.575 260.371 358.47C260.468 358.426 260.568 358.379 260.663 358.336C261.643 356.756 261.849 354.7 262.128 353.02C263.166 346.19 268.654 337.058 275.471 337.819C289.503 339.973 282.901 356.582 289.293 365.723Z" fill="#f7cfda" fill-opacity="0.7"/>
<path d="M292.613 349.994C294.901 346.996 300.005 347.044 304.014 350.103C308.023 353.161 309.418 358.071 307.13 361.07C304.842 364.068 299.738 364.02 295.729 360.961C291.721 357.903 290.325 352.993 292.613 349.994Z" fill="#f7cfda" fill-opacity="0.7"/>
<path d="M297.994 372.229C300.535 368.899 306.204 368.953 310.657 372.35C315.109 375.746 316.658 381.2 314.118 384.53C311.577 387.86 305.908 387.806 301.456 384.41C297.003 381.013 295.454 375.559 297.994 372.229Z" fill="#f7cfda" fill-opacity="0.7"/>
<path d="M260.761 390.928C263.049 387.929 268.153 387.978 272.162 391.037C276.171 394.095 277.566 399.005 275.278 402.004C272.991 405.002 267.886 404.954 263.878 401.895C259.869 398.837 258.474 393.926 260.761 390.928Z" fill="#f7cfda" fill-opacity="0.7"/>
<path d="M284.021 390.544C286.562 387.214 292.231 387.268 296.683 390.665C301.135 394.062 302.685 399.515 300.144 402.845C297.604 406.176 291.934 406.122 287.482 402.725C283.03 399.328 281.48 393.874 284.021 390.544Z" fill="#f7cfda" fill-opacity="0.7"/>
</g>
<g clip-path="url(#clip7_106_512)">
<path d="M349.253 282.977C349.155 284.706 348.814 286.426 348.145 288.024C348.14 288.036 348.135 288.048 348.13 288.061C346.693 291.464 344.127 294.559 340.425 295.513C340.393 295.521 340.361 295.523 340.329 295.531C340.297 295.539 340.268 295.553 340.236 295.562C336.534 296.516 332.792 295.048 329.889 292.764C329.878 292.756 329.868 292.747 329.857 292.739C328.499 291.664 327.369 290.323 326.447 288.857C320.511 279.413 302.642 279.038 306.114 265.273C308.063 258.696 318.61 257.191 325.307 258.89C326.963 259.287 328.938 259.897 330.774 259.608C330.85 259.537 330.932 259.463 331.011 259.391C331.114 259.417 331.221 259.441 331.322 259.467C333.069 258.832 334.503 257.343 335.761 256.195C340.801 251.47 350.761 247.687 355.647 252.501C365.342 262.871 349.883 271.84 349.253 282.977Z" fill="#f7cfda"/>
<path d="M361.589 272.669C365.241 271.728 369.222 274.922 370.481 279.805C371.74 284.688 369.8 289.409 366.148 290.351C362.496 291.292 358.515 288.098 357.256 283.215C355.997 278.332 357.937 273.611 361.589 272.669Z" fill="#f7cfda"/>
<path d="M352.068 293.471C356.124 292.425 360.545 295.973 361.944 301.396C363.342 306.819 361.187 312.062 357.131 313.108C353.075 314.154 348.653 310.606 347.255 305.183C345.857 299.76 348.011 294.516 352.068 293.471Z" fill="#f7cfda"/>
<path d="M311.244 285.14C314.896 284.198 318.877 287.393 320.136 292.275C321.395 297.158 319.455 301.879 315.803 302.821C312.151 303.763 308.17 300.568 306.911 295.685C305.652 290.803 307.592 286.081 311.244 285.14Z" fill="#f7cfda"/>
<path d="M329.76 299.222C333.816 298.177 338.238 301.725 339.636 307.148C341.034 312.57 338.88 317.814 334.824 318.86C330.767 319.906 326.346 316.358 324.948 310.935C323.549 305.512 325.704 300.268 329.76 299.222Z" fill="#f7cfda"/>
</g>
<g clip-path="url(#clip8_106_512)">
<path d="M229.494 275.731C229.789 277.843 229.789 280.002 229.363 282.091C229.36 282.107 229.357 282.124 229.353 282.14C228.432 286.593 226.072 290.945 221.829 292.983C221.793 293.001 221.754 293.01 221.718 293.027C221.681 293.045 221.65 293.069 221.613 293.087C217.37 295.125 212.498 294.247 208.446 292.182C208.431 292.175 208.417 292.167 208.402 292.16C206.505 291.186 204.819 289.837 203.355 288.286C193.927 278.299 172.255 282.119 173.157 264.663C173.939 256.253 186.318 251.914 194.812 252.365C196.907 252.447 199.438 252.712 201.588 251.924C201.662 251.82 201.744 251.712 201.821 251.606C201.952 251.612 202.087 251.616 202.216 251.623C204.174 250.438 205.55 248.296 206.794 246.609C211.752 239.697 222.877 232.746 229.93 237.393C244.119 247.6 227.592 262.129 229.494 275.731Z" fill="#f7cfda"/>
<path d="M241.929 260.331C246.115 258.321 251.688 261.227 254.376 266.823C257.064 272.42 255.85 278.586 251.664 280.597C247.478 282.607 241.906 279.701 239.217 274.105C236.529 268.508 237.744 262.342 241.929 260.331Z" fill="#f7cfda"/>
<path d="M235.403 287.732C240.052 285.499 246.241 288.727 249.227 294.943C252.212 301.158 250.864 308.007 246.215 310.24C241.566 312.473 235.377 309.245 232.391 303.029C229.406 296.814 230.754 289.965 235.403 287.732Z" fill="#f7cfda"/>
<path d="M184.104 287.432C188.29 285.421 193.862 288.328 196.55 293.924C199.238 299.52 198.024 305.687 193.838 307.697C189.652 309.708 184.08 306.801 181.392 301.205C178.704 295.609 179.918 289.442 184.104 287.432Z" fill="#f7cfda"/>
<path d="M209.835 300.013C214.484 297.78 220.673 301.009 223.659 307.224C226.644 313.439 225.296 320.288 220.647 322.521C215.998 324.755 209.809 321.526 206.823 315.311C203.838 309.095 205.186 302.247 209.835 300.013Z" fill="#f7cfda"/>
</g>
<g clip-path="url(#clip9_106_512)">
<path d="M279.63 182.11C278.857 183.937 277.827 185.661 276.489 187.126C276.479 187.137 276.468 187.148 276.458 187.159C273.597 190.275 269.636 192.623 265.276 192.224C265.239 192.221 265.203 192.21 265.166 192.206C265.128 192.203 265.091 192.207 265.054 192.204C260.694 191.806 257.224 188.779 254.975 185.197C254.966 185.184 254.958 185.171 254.95 185.158C253.9 183.475 253.199 181.594 252.77 179.657C250.011 167.184 230.887 159.89 239.939 146.385C244.577 140.045 256.53 142.489 263.096 146.903C264.729 147.97 266.623 149.389 268.715 149.786C268.825 149.738 268.941 149.691 269.053 149.643C269.155 149.71 269.261 149.778 269.36 149.845C271.489 149.834 273.61 148.781 275.409 148.028C282.666 144.876 294.864 144.638 298.277 151.714C304.732 166.635 284.603 170.344 279.63 182.11Z" fill="#f7cfda"/>
<path d="M296.907 175.753C301.208 176.146 304.269 181.126 303.744 186.876C303.218 192.627 299.306 196.97 295.005 196.577C290.703 196.184 287.642 191.204 288.168 185.453C288.693 179.703 292.605 175.36 296.907 175.753Z" fill="#f7cfda"/>
<path d="M278.618 194.512C283.395 194.948 286.795 200.479 286.212 206.866C285.628 213.252 281.283 218.076 276.506 217.64C271.729 217.203 268.329 211.672 268.912 205.286C269.496 198.899 273.841 194.075 278.618 194.512Z" fill="#f7cfda"/>
<path d="M237.81 169.786C242.111 170.179 245.172 175.159 244.647 180.91C244.122 186.66 240.209 191.003 235.908 190.61C231.607 190.217 228.546 185.237 229.071 179.487C229.596 173.736 233.509 169.393 237.81 169.786Z" fill="#f7cfda"/>
<path d="M252.346 192.112C257.123 192.548 260.523 198.079 259.939 204.466C259.356 210.853 255.01 215.676 250.233 215.24C245.456 214.804 242.056 209.273 242.64 202.886C243.223 196.499 247.569 191.675 252.346 192.112Z" fill="#f7cfda"/>
</g>
<g clip-path="url(#clip10_106_512)">
<path d="M188.296 133.081C188.585 134.476 188.679 135.915 188.487 137.327C188.485 137.338 188.484 137.349 188.482 137.36C188.062 140.369 186.68 143.374 183.94 144.918C183.916 144.931 183.891 144.939 183.867 144.953C183.844 144.966 183.824 144.983 183.8 144.997C181.061 146.541 177.774 146.168 174.982 144.969C174.972 144.965 174.962 144.961 174.952 144.956C173.644 144.39 172.462 143.564 171.418 142.594C164.695 136.348 150.414 139.842 150.251 128.165C150.405 122.524 158.468 119.089 164.151 119.019C165.552 118.982 167.251 119.048 168.649 118.429C168.695 118.356 168.744 118.28 168.791 118.206C168.879 118.204 168.969 118.201 169.055 118.2C170.309 117.324 171.132 115.837 171.888 114.657C174.892 109.832 182.005 104.712 186.91 107.501C196.817 113.686 186.433 124.095 188.296 133.081Z" fill="#f7cfda"/>
<path d="M195.913 122.27C198.616 120.747 202.458 122.441 204.495 126.054C206.532 129.668 205.992 133.832 203.289 135.356C200.586 136.879 196.744 135.185 194.707 131.572C192.67 127.958 193.21 123.794 195.913 122.27Z" fill="#f7cfda"/>
<path d="M192.76 140.824C195.762 139.132 200.029 141.014 202.292 145.027C204.554 149.04 203.954 153.665 200.952 155.357C197.95 157.05 193.683 155.168 191.421 151.154C189.159 147.141 189.758 142.516 192.76 140.824Z" fill="#f7cfda"/>
<path d="M158.545 142.866C161.248 141.343 165.09 143.037 167.127 146.651C169.164 150.264 168.624 154.429 165.921 155.952C163.218 157.476 159.376 155.781 157.339 152.168C155.302 148.554 155.842 144.39 158.545 142.866Z" fill="#f7cfda"/>
<path d="M176.251 150.13C179.253 148.438 183.52 150.319 185.782 154.333C188.044 158.346 187.445 162.971 184.443 164.663C181.441 166.355 177.174 164.474 174.911 160.46C172.649 156.447 173.249 151.822 176.251 150.13Z" fill="#f7cfda"/>
</g>
<g clip-path="url(#clip11_106_512)">
<path d="M210.224 61.0045C209.572 62.0316 208.775 62.9699 207.817 63.7207C207.81 63.7265 207.803 63.7323 207.795 63.738C205.749 65.3334 203.116 66.3532 200.519 65.6715C200.497 65.6657 200.476 65.6557 200.454 65.6495C200.432 65.6439 200.409 65.6427 200.387 65.6368C197.79 64.9552 195.997 62.7736 194.998 60.3792C194.994 60.3706 194.991 60.362 194.987 60.3533C194.522 59.2292 194.288 58.0201 194.225 56.8052C193.816 48.9814 182.986 42.6354 189.826 35.3813C193.273 32.0148 200.256 34.7019 203.782 38.036C204.662 38.846 205.664 39.8962 206.889 40.3478C206.961 40.33 207.036 40.3131 207.109 40.2955C207.163 40.3465 207.221 40.3982 207.274 40.4487C208.563 40.657 209.952 40.2344 211.116 39.961C215.825 38.7881 223.228 39.8769 224.577 44.5021C226.973 54.1805 214.422 54.3897 210.224 61.0045Z" fill="#f7cfda"/>
<path d="M221.318 58.9051C223.88 59.5776 225.228 62.8996 224.329 66.325C223.43 69.7504 220.624 71.9821 218.062 71.3097C215.5 70.6372 214.152 67.3152 215.051 63.8898C215.95 60.4644 218.756 58.2327 221.318 58.9051Z" fill="#f7cfda"/>
<path d="M208.359 68.4038C211.204 69.1507 212.702 72.8403 211.703 76.6447C210.705 80.4491 207.588 82.9277 204.743 82.1808C201.897 81.434 200.4 77.7444 201.398 73.94C202.397 70.1356 205.513 67.6569 208.359 68.4038Z" fill="#f7cfda"/>
<path d="M186.173 49.3218C188.735 49.9942 190.083 53.3162 189.184 56.7416C188.285 60.1671 185.479 62.3988 182.917 61.7263C180.355 61.0538 179.007 57.7318 179.906 54.3064C180.805 50.881 183.611 48.6493 186.173 49.3218Z" fill="#f7cfda"/>
<path d="M192.709 64.2963C195.554 65.0431 197.052 68.7327 196.053 72.5371C195.055 76.3416 191.938 78.8202 189.093 78.0733C186.247 77.3264 184.75 73.6369 185.748 69.8324C186.747 66.028 189.863 63.5494 192.709 64.2963Z" fill="#f7cfda"/>
</g>
<defs>
<clipPath id="clip0_106_512">
<rect width="23.9689" height="23.1205" fill="white" transform="matrix(0.887795 -0.460238 -0.460238 -0.887795 200.211 668.823)"/>
</clipPath>
<clipPath id="clip1_106_512">
<rect width="23.5192" height="22.6866" fill="white" transform="matrix(0.992886 0.119067 0.119067 -0.992886 237.325 617.321)"/>
</clipPath>
<clipPath id="clip2_106_512">
<rect width="33.4302" height="32.2468" fill="white" transform="matrix(0.866667 -0.498887 -0.498887 -0.866667 214.617 585.957)"/>
</clipPath>
<clipPath id="clip3_106_512">
<rect width="41.0614" height="39.6079" fill="white" transform="matrix(0.971152 -0.238462 -0.238462 -0.971152 284.007 555.665)"/>
</clipPath>
<clipPath id="clip4_106_512">
<rect width="44.4931" height="42.9181" fill="white" transform="matrix(0.58671 -0.809797 -0.809797 -0.58671 303.587 490.978)"/>
</clipPath>
<clipPath id="clip5_106_512">
<rect width="53.902" height="51.9939" fill="white" transform="matrix(0.996219 -0.0868782 -0.0868782 -0.996219 341.584 447.549)"/>
</clipPath>
<clipPath id="clip6_106_512">
<rect width="65.522" height="63.2026" fill="white" transform="matrix(0.606561 -0.795037 -0.795037 -0.606561 287.259 419.734)"/>
</clipPath>
<clipPath id="clip7_106_512">
<rect width="65.5219" height="63.2026" fill="white" transform="matrix(0.968329 -0.249676 -0.249676 -0.968329 314.254 324.164)"/>
</clipPath>
<clipPath id="clip8_106_512">
<rect width="80.6745" height="77.8188" fill="white" transform="matrix(0.901404 -0.43298 -0.43298 -0.901404 197.071 333.846)"/>
</clipPath>
<clipPath id="clip9_106_512">
<rect width="75.0355" height="72.3794" fill="white" transform="matrix(0.995854 0.0909624 0.0909624 -0.995854 226.007 213.027)"/>
</clipPath>
<clipPath id="clip10_106_512">
<rect width="53.902" height="51.9939" fill="white" transform="matrix(0.87114 -0.491035 -0.491035 -0.87114 169.219 173.244)"/>
</clipPath>
<clipPath id="clip11_106_512">
<rect width="46.0194" height="44.3904" fill="white" transform="matrix(0.967239 0.253866 0.253866 -0.967239 174.662 74.2856)"/>
</clipPath>
</defs>
</svg>
