<svg width="421" height="652" viewBox="0 0 421 652" fill="none" xmlns="http://www.w3.org/2000/svg">
<g clip-path="url(#clip0_47_30)">
<path d="M399.532 552.059C399.822 552.602 400.19 553.106 400.645 553.522C400.648 553.525 400.652 553.528 400.655 553.531C401.628 554.414 402.92 555.029 404.257 554.783C404.268 554.781 404.279 554.776 404.291 554.774C404.302 554.772 404.314 554.772 404.325 554.77C405.662 554.524 406.651 553.49 407.245 552.318C407.248 552.314 407.25 552.31 407.252 552.306C407.529 551.756 407.693 551.154 407.771 550.543C408.273 546.607 413.983 543.811 410.802 539.889C409.189 538.059 405.56 539.152 403.654 540.702C403.179 541.078 402.633 541.571 401.997 541.752C401.962 541.741 401.924 541.729 401.888 541.718C401.859 541.741 401.828 541.765 401.799 541.789C401.14 541.845 400.454 541.579 399.877 541.397C397.543 540.627 393.763 540.897 392.907 543.182C391.331 547.979 397.662 548.559 399.532 552.059Z" fill="#f7cfda"/>
<path d="M394.008 550.579C392.689 550.822 391.883 552.449 392.207 554.213C392.532 555.977 393.864 557.21 395.184 556.967C396.503 556.724 397.31 555.097 396.985 553.334C396.661 551.57 395.328 550.336 394.008 550.579Z" fill="#f7cfda"/>
<path d="M400.194 555.866C398.729 556.136 397.833 557.943 398.194 559.902C398.554 561.861 400.034 563.231 401.5 562.961C402.965 562.691 403.861 560.884 403.5 558.925C403.14 556.966 401.66 555.597 400.194 555.866Z" fill="#f7cfda"/>
<path d="M412.12 547.068C410.801 547.31 409.995 548.937 410.319 550.701C410.644 552.465 411.976 553.698 413.296 553.455C414.615 553.213 415.422 551.586 415.097 549.822C414.773 548.058 413.44 546.825 412.12 547.068Z" fill="#f7cfda"/>
<path d="M408.253 554.383C406.788 554.653 405.892 556.46 406.253 558.419C406.613 560.378 408.094 561.747 409.559 561.478C411.024 561.208 411.92 559.401 411.56 557.442C411.199 555.483 409.719 554.114 408.253 554.383Z" fill="#f7cfda"/>
</g>
<g clip-path="url(#clip1_47_30)">
<path d="M339.165 545.797C339.701 546.077 340.277 546.283 340.876 546.369C340.88 546.37 340.885 546.371 340.889 546.371C342.166 546.55 343.553 546.336 344.502 545.398C344.51 545.39 344.516 545.38 344.524 545.372C344.533 545.364 344.542 545.358 344.55 545.35C345.499 544.412 345.73 543.028 345.565 541.749C345.565 541.744 345.564 541.74 345.564 541.735C345.485 541.136 345.286 540.557 345.011 540.018C343.246 536.548 346.334 531.128 341.588 529.703C339.269 529.109 336.929 531.999 336.239 534.309C336.061 534.876 335.89 535.577 335.474 536.076C335.439 536.086 335.403 536.097 335.367 536.108C335.356 536.143 335.344 536.18 335.334 536.215C334.831 536.624 334.128 536.787 333.559 536.958C331.24 537.622 328.323 539.928 328.89 542.254C330.26 547.016 335.716 543.991 339.165 545.797Z" fill="#f7cfda"/>
<path d="M333.868 547.646C332.932 548.572 333.176 550.337 334.413 551.588C335.65 552.84 337.412 553.105 338.348 552.179C339.284 551.254 339.04 549.489 337.803 548.237C336.566 546.986 334.804 546.721 333.868 547.646Z" fill="#f7cfda"/>
<path d="M341.805 548.52C340.765 549.548 341.036 551.508 342.41 552.898C343.784 554.288 345.741 554.582 346.781 553.554C347.82 552.526 347.549 550.566 346.175 549.176C344.801 547.786 342.844 547.492 341.805 548.52Z" fill="#f7cfda"/>
<path d="M346.621 534.798C345.685 535.723 345.929 537.488 347.166 538.74C348.403 539.992 350.165 540.256 351.101 539.331C352.037 538.405 351.793 536.64 350.556 535.389C349.319 534.137 347.557 533.873 346.621 534.798Z" fill="#f7cfda"/>
<path d="M347.523 542.867C346.483 543.895 346.754 545.855 348.129 547.245C349.503 548.636 351.459 548.929 352.499 547.902C353.539 546.874 353.268 544.914 351.894 543.523C350.52 542.133 348.563 541.84 347.523 542.867Z" fill="#f7cfda"/>
</g>
<g clip-path="url(#clip2_47_30)">
<path d="M332.677 492.767C333.048 493.542 333.529 494.267 334.138 494.874C334.143 494.878 334.147 494.883 334.152 494.888C335.453 496.178 337.215 497.113 339.093 496.853C339.11 496.85 339.125 496.845 339.141 496.843C339.157 496.841 339.173 496.842 339.189 496.839C341.068 496.579 342.508 495.198 343.409 493.603C343.412 493.597 343.415 493.591 343.419 493.585C343.839 492.836 344.104 492.007 344.25 491.161C345.192 485.707 353.319 482.163 349.128 476.502C346.993 473.853 341.869 475.153 339.118 477.196C338.433 477.691 337.642 478.343 336.745 478.558C336.696 478.539 336.645 478.521 336.595 478.503C336.553 478.534 336.508 478.565 336.467 478.596C335.545 478.635 334.606 478.222 333.812 477.933C330.608 476.716 325.325 476.86 323.991 479.991C321.501 486.579 330.286 487.776 332.677 492.767Z" fill="#f7cfda"/>
<path d="M325.072 490.366C323.218 490.623 321.995 492.841 322.339 495.318C322.682 497.796 324.464 499.596 326.317 499.339C328.17 499.082 329.394 496.865 329.05 494.387C328.706 491.909 326.925 490.109 325.072 490.366Z" fill="#f7cfda"/>
<path d="M333.366 498.113C331.308 498.399 329.949 500.861 330.331 503.613C330.713 506.365 332.691 508.364 334.749 508.079C336.808 507.793 338.167 505.33 337.785 502.578C337.403 499.826 335.425 497.827 333.366 498.113Z" fill="#f7cfda"/>
<path d="M350.524 486.586C348.671 486.843 347.447 489.06 347.791 491.538C348.135 494.016 349.916 495.816 351.77 495.558C353.623 495.301 354.847 493.084 354.503 490.606C354.159 488.128 352.377 486.328 350.524 486.586Z" fill="#f7cfda"/>
<path d="M344.687 496.542C342.628 496.827 341.269 499.29 341.651 502.042C342.033 504.794 344.012 506.793 346.07 506.507C348.128 506.222 349.487 503.759 349.105 501.007C348.723 498.255 346.745 496.256 344.687 496.542Z" fill="#f7cfda"/>
</g>
<g clip-path="url(#clip3_47_30)">
<path d="M252.837 516.805C253.539 517.592 254.354 518.284 255.279 518.792C255.286 518.796 255.294 518.8 255.301 518.804C257.277 519.882 259.674 520.385 261.802 519.436C261.82 519.428 261.836 519.416 261.854 519.408C261.873 519.4 261.892 519.396 261.91 519.387C264.038 518.439 265.266 516.319 265.785 514.129C265.787 514.121 265.788 514.113 265.79 514.105C266.03 513.077 266.061 512.009 265.944 510.96C265.194 504.204 273.574 497.248 266.698 492C263.273 489.602 257.672 492.885 255.123 496.235C254.483 497.052 253.773 498.092 252.787 498.651C252.724 498.646 252.657 498.642 252.592 498.637C252.553 498.688 252.511 498.741 252.472 498.791C251.398 499.151 250.15 498.984 249.114 498.914C244.918 498.572 238.733 500.545 238.229 504.694C237.538 513.317 248.313 511.732 252.837 516.805Z" fill="#f7cfda"/>
<path d="M243.044 516.567C240.945 517.503 240.258 520.537 241.509 523.343C242.76 526.149 245.476 527.666 247.575 526.73C249.674 525.794 250.361 522.76 249.11 519.954C247.859 517.147 245.143 515.631 243.044 516.567Z" fill="#f7cfda"/>
<path d="M255.474 522.877C253.143 523.917 252.38 527.286 253.77 530.403C255.159 533.52 258.176 535.204 260.507 534.164C262.838 533.124 263.602 529.755 262.212 526.638C260.822 523.522 257.806 521.838 255.474 522.877Z" fill="#f7cfda"/>
<path d="M271.786 503.421C269.687 504.357 268.999 507.391 270.251 510.197C271.502 513.003 274.218 514.519 276.317 513.583C278.416 512.647 279.103 509.614 277.852 506.807C276.601 504.001 273.885 502.485 271.786 503.421Z" fill="#f7cfda"/>
<path d="M268.295 517.16C265.964 518.2 265.201 521.569 266.591 524.686C267.981 527.803 270.997 529.486 273.328 528.447C275.66 527.407 276.423 524.038 275.033 520.921C273.643 517.805 270.627 516.121 268.295 517.16Z" fill="#f7cfda"/>
</g>
<g clip-path="url(#clip4_47_30)">
<path d="M209.286 457.267C209.315 458.41 209.505 459.552 209.913 460.62C209.917 460.629 209.92 460.637 209.923 460.645C210.801 462.921 212.431 465.016 214.854 465.722C214.875 465.728 214.896 465.73 214.917 465.736C214.938 465.742 214.957 465.752 214.978 465.758C217.401 466.465 219.902 465.573 221.865 464.125C221.872 464.12 221.879 464.115 221.886 464.109C222.804 463.428 223.578 462.566 224.216 461.618C228.329 455.507 240.129 455.628 238.122 446.472C236.971 442.091 230.041 440.881 225.587 441.864C224.486 442.091 223.17 442.454 221.963 442.225C221.915 442.176 221.862 442.126 221.812 442.077C221.743 442.092 221.672 442.106 221.605 442.121C220.465 441.665 219.549 440.653 218.743 439.869C215.514 436.647 209.019 433.945 205.695 437.022C199.083 443.666 209.1 449.904 209.286 457.267Z" fill="#f7cfda"/>
<path d="M201.357 450.21C198.966 449.513 196.273 451.539 195.342 454.736C194.41 457.932 195.593 461.088 197.984 461.785C200.375 462.482 203.068 460.455 204 457.259C204.931 454.063 203.748 450.906 201.357 450.21Z" fill="#f7cfda"/>
<path d="M207.212 464.134C204.557 463.36 201.566 465.611 200.531 469.161C199.497 472.711 200.811 476.216 203.466 476.99C206.121 477.764 209.113 475.513 210.147 471.963C211.182 468.413 209.868 464.908 207.212 464.134Z" fill="#f7cfda"/>
<path d="M234.326 459.478C231.936 458.781 229.242 460.807 228.311 464.004C227.379 467.2 228.562 470.356 230.953 471.053C233.344 471.75 236.037 469.723 236.969 466.527C237.9 463.33 236.717 460.174 234.326 459.478Z" fill="#f7cfda"/>
<path d="M221.816 468.39C219.161 467.616 216.169 469.867 215.135 473.417C214.1 476.967 215.414 480.472 218.07 481.246C220.725 482.02 223.716 479.769 224.751 476.219C225.785 472.669 224.472 469.164 221.816 468.39Z" fill="#f7cfda"/>
</g>
<g clip-path="url(#clip5_47_30)">
<path d="M133.255 472.71C134.325 473.59 135.521 474.323 136.823 474.796C136.833 474.8 136.843 474.804 136.853 474.807C139.633 475.809 142.845 475.979 145.414 474.32C145.436 474.306 145.455 474.288 145.477 474.273C145.499 474.259 145.523 474.25 145.545 474.236C148.114 472.577 149.281 469.58 149.513 466.635C149.514 466.624 149.515 466.613 149.516 466.603C149.621 465.221 149.445 463.829 149.083 462.492C146.751 453.879 156.223 443.171 146.248 437.745C141.324 435.323 134.718 440.708 132.084 445.566C131.419 446.755 130.706 448.247 129.541 449.17C129.457 449.176 129.37 449.185 129.285 449.191C129.244 449.266 129.2 449.342 129.16 449.416C127.839 450.098 126.186 450.133 124.829 450.25C119.317 450.65 111.69 454.453 111.87 459.938C112.708 471.263 126.366 467.039 133.255 472.71Z" fill="#f7cfda"/>
<path d="M120.504 474.371C117.969 476.008 117.688 480.081 119.875 483.47C122.063 486.858 125.891 488.279 128.426 486.643C130.96 485.006 131.242 480.933 129.054 477.544C126.867 474.156 123.038 472.735 120.504 474.371Z" fill="#f7cfda"/>
<path d="M137.898 480.057C135.083 481.874 134.77 486.399 137.2 490.162C139.629 493.926 143.881 495.504 146.696 493.686C149.511 491.869 149.824 487.345 147.394 483.581C144.965 479.818 140.713 478.24 137.898 480.057Z" fill="#f7cfda"/>
<path d="M155.145 451.538C152.61 453.174 152.329 457.248 154.516 460.636C156.704 464.025 160.532 465.445 163.067 463.809C165.601 462.173 165.883 458.099 163.695 454.711C161.507 451.322 157.679 449.901 155.145 451.538Z" fill="#f7cfda"/>
<path d="M153.38 470.062C150.565 471.88 150.252 476.404 152.682 480.168C155.112 483.931 159.363 485.509 162.178 483.692C164.993 481.874 165.306 477.35 162.876 473.587C160.447 469.823 156.195 468.245 153.38 470.062Z" fill="#f7cfda"/>
</g>
<g clip-path="url(#clip6_47_30)">
<path d="M167.818 380.448C167.902 382.13 168.222 383.804 168.863 385.362C168.868 385.374 168.873 385.386 168.878 385.398C170.253 388.716 172.729 391.741 176.322 392.693C176.353 392.701 176.385 392.703 176.416 392.711C176.447 392.719 176.475 392.733 176.506 392.741C180.099 393.693 183.748 392.289 186.585 390.086C186.595 390.078 186.605 390.07 186.615 390.062C187.943 389.026 189.05 387.729 189.956 386.309C195.788 377.164 213.164 376.912 209.875 363.505C208.022 357.098 197.776 355.568 191.254 357.178C189.641 357.553 187.717 358.134 185.933 357.842C185.859 357.772 185.78 357.7 185.704 357.629C185.604 357.653 185.499 357.676 185.401 357.701C183.706 357.072 182.321 355.615 181.105 354.491C176.234 349.865 166.574 346.124 161.792 350.774C152.3 360.797 167.276 369.615 167.818 380.448Z" fill="#f7cfda"/>
<path d="M155.888 370.347C152.342 369.409 148.451 372.49 147.196 377.23C145.941 381.969 147.798 386.572 151.343 387.511C154.888 388.45 158.78 385.368 160.034 380.629C161.289 375.889 159.433 371.286 155.888 370.347Z" fill="#f7cfda"/>
<path d="M165.015 390.633C161.077 389.591 156.755 393.013 155.362 398.277C153.968 403.541 156.03 408.654 159.967 409.696C163.905 410.739 168.226 407.316 169.62 402.052C171.014 396.788 168.952 391.676 165.015 390.633Z" fill="#f7cfda"/>
<path d="M204.762 382.79C201.217 381.852 197.325 384.933 196.07 389.673C194.816 394.412 196.672 399.015 200.217 399.954C203.762 400.893 207.654 397.811 208.909 393.072C210.164 388.332 208.307 383.729 204.762 382.79Z" fill="#f7cfda"/>
<path d="M186.669 396.367C182.732 395.324 178.41 398.747 177.016 404.011C175.622 409.275 177.684 414.387 181.622 415.43C185.559 416.472 189.881 413.05 191.275 407.786C192.668 402.522 190.606 397.409 186.669 396.367Z" fill="#f7cfda"/>
</g>
<g clip-path="url(#clip7_47_30)">
<path d="M72.4206 352.654C73.5271 353.924 74.8145 355.042 76.2812 355.87C76.2925 355.876 76.3038 355.882 76.3151 355.889C79.4478 357.645 83.2645 358.492 86.6767 357.017C86.7061 357.005 86.7318 356.987 86.7611 356.974C86.7906 356.961 86.8213 356.955 86.8508 356.942C90.2629 355.468 92.262 352.108 93.1294 348.623C93.1326 348.61 93.1357 348.598 93.1388 348.585C93.541 346.949 93.6091 345.246 93.4426 343.57C92.37 332.776 105.87 321.832 94.9944 313.331C89.5752 309.442 80.5775 314.576 76.4476 319.874C75.4122 321.167 74.2593 322.813 72.6766 323.687C72.5755 323.677 72.4688 323.67 72.3657 323.661C72.3015 323.742 72.2338 323.825 72.1714 323.905C70.4507 324.459 68.4615 324.17 66.8109 324.039C60.1222 323.415 50.217 326.449 49.3352 333.061C48.0739 346.807 65.2953 344.476 72.4206 352.654Z" fill="#f7cfda"/>
<path d="M56.7991 352.094C53.4327 353.549 52.2803 358.377 54.2251 362.878C56.17 367.378 60.4756 369.848 63.8421 368.393C67.2085 366.938 68.361 362.11 66.4161 357.61C64.4712 353.109 60.1656 350.64 56.7991 352.094Z" fill="#f7cfda"/>
<path d="M76.5168 362.392C72.7779 364.008 71.4979 369.37 73.658 374.368C75.8181 379.367 80.6001 382.109 84.3391 380.494C88.078 378.878 89.3579 373.516 87.1979 368.517C85.0378 363.519 80.2557 360.776 76.5168 362.392Z" fill="#f7cfda"/>
<path d="M102.902 331.648C99.5356 333.103 98.3832 337.931 100.328 342.432C102.273 346.932 106.579 349.402 109.945 347.947C113.311 346.492 114.464 341.664 112.519 337.164C110.574 332.663 106.269 330.194 102.902 331.648Z" fill="#f7cfda"/>
<path d="M97.0796 353.506C93.3407 355.122 92.0607 360.484 94.2208 365.483C96.3809 370.481 101.163 373.224 104.902 371.608C108.641 369.993 109.921 364.631 107.761 359.632C105.601 354.633 100.819 351.891 97.0796 353.506Z" fill="#f7cfda"/>
</g>
<g clip-path="url(#clip8_47_30)">
<path d="M160.077 275.67C161.11 277.468 162.397 279.126 163.971 280.477C163.983 280.487 163.995 280.498 164.007 280.508C167.371 283.379 171.778 285.314 176.252 284.349C176.291 284.341 176.326 284.325 176.365 284.317C176.403 284.309 176.442 284.308 176.48 284.3C180.954 283.335 184.172 279.755 186.053 275.753C186.06 275.738 186.067 275.724 186.074 275.709C186.95 273.83 187.44 271.789 187.64 269.725C188.925 256.432 207.847 246.441 196.745 233.572C191.129 227.58 179.034 231.629 172.779 237.041C171.219 238.354 169.433 240.067 167.313 240.744C167.193 240.708 167.066 240.674 166.943 240.638C166.846 240.721 166.745 240.805 166.65 240.887C164.44 241.144 162.106 240.32 160.144 239.767C152.214 237.414 139.525 238.71 136.879 246.485C132.068 262.786 153.426 264.089 160.077 275.67Z" fill="#f7cfda" fill-opacity="0.7"/>
<path d="M141.343 271.259C136.929 272.211 134.383 277.766 135.655 283.667C136.928 289.568 141.538 293.58 145.952 292.628C150.366 291.676 152.912 286.121 151.64 280.22C150.367 274.319 145.757 270.307 141.343 271.259Z" fill="#f7cfda" fill-opacity="0.7"/>
<path d="M162.696 288.411C157.793 289.469 154.965 295.639 156.379 302.193C157.793 308.747 162.913 313.203 167.815 312.145C172.717 311.088 175.545 304.918 174.132 298.364C172.718 291.81 167.598 287.354 162.696 288.411Z" fill="#f7cfda" fill-opacity="0.7"/>
<path d="M201.916 257.588C197.502 258.54 194.955 264.095 196.228 269.996C197.501 275.898 202.111 279.91 206.525 278.957C210.939 278.005 213.485 272.45 212.212 266.549C210.94 260.648 206.33 256.636 201.916 257.588Z" fill="#f7cfda" fill-opacity="0.7"/>
<path d="M189.657 282.596C184.754 283.653 181.926 289.824 183.34 296.378C184.753 302.932 189.874 307.387 194.776 306.33C199.678 305.273 202.506 299.102 201.093 292.548C199.679 285.994 194.559 281.539 189.657 282.596Z" fill="#f7cfda" fill-opacity="0.7"/>
</g>
<g clip-path="url(#clip9_47_30)">
<path d="M65.7407 233.666C67.4234 234.608 69.2427 235.317 71.1436 235.645C71.1582 235.647 71.1729 235.65 71.1875 235.652C75.243 236.338 79.6851 235.78 82.7959 232.874C82.8228 232.849 82.8436 232.82 82.8701 232.794C82.8972 232.769 82.9278 232.751 82.9546 232.726C86.0655 229.82 86.9256 225.426 86.517 221.333C86.5155 221.319 86.514 221.304 86.5125 221.289C86.3155 219.37 85.732 217.507 84.9061 215.764C79.5875 204.539 89.9242 187.532 74.9189 182.558C67.5757 180.454 59.8531 189.46 57.4429 196.766C56.8246 198.559 56.2163 200.779 54.8466 202.331C54.7339 202.36 54.6159 202.393 54.5013 202.423C54.4634 202.535 54.4223 202.651 54.386 202.761C52.7441 204.022 50.4878 204.478 48.6572 204.973C41.2042 206.88 31.6932 213.971 33.292 221.44C37.2325 236.75 54.9039 227.595 65.7407 233.666Z" fill="#f7cfda" fill-opacity="0.5"/>
<path d="M48.6799 239.086C45.6108 241.953 46.2298 247.603 50.0625 251.707C53.8952 255.81 59.4903 256.812 62.5594 253.945C65.6286 251.079 65.0096 245.428 61.1768 241.325C57.3441 237.222 51.7491 236.22 48.6799 239.086Z" fill="#f7cfda" fill-opacity="0.5"/>
<path d="M73.9128 242.587C70.5041 245.771 71.1916 252.047 75.4484 256.604C79.7051 261.161 85.9193 262.274 89.328 259.09C92.7367 255.906 92.0493 249.631 87.7925 245.074C83.5357 240.516 77.3215 239.403 73.9128 242.587Z" fill="#f7cfda" fill-opacity="0.5"/>
<path d="M90.5095 199.261C87.4403 202.128 88.0593 207.778 91.892 211.881C95.7247 215.985 101.32 216.987 104.389 214.12C107.458 211.253 106.839 205.603 103.006 201.5C99.1737 197.397 93.5786 196.394 90.5095 199.261Z" fill="#f7cfda" fill-opacity="0.5"/>
<path d="M92.6597 225.076C89.2509 228.26 89.9384 234.536 94.1952 239.093C98.452 243.65 104.666 244.763 108.075 241.579C111.484 238.395 110.796 232.12 106.539 227.563C102.283 223.005 96.0684 221.892 92.6597 225.076Z" fill="#f7cfda" fill-opacity="0.5"/>
</g>
<g clip-path="url(#clip10_47_30)">
<path d="M106.648 141.542C107.258 142.786 108.044 143.948 109.034 144.917C109.042 144.925 109.049 144.932 109.057 144.94C111.174 147.001 114.028 148.484 117.053 148.036C117.079 148.032 117.103 148.023 117.129 148.019C117.155 148.016 117.181 148.017 117.207 148.013C120.232 147.565 122.534 145.319 123.963 142.733C123.968 142.724 123.973 142.715 123.978 142.705C124.645 141.491 125.061 140.151 125.284 138.784C126.722 129.977 139.775 124.144 132.935 115.079C129.453 110.838 121.212 113.009 116.805 116.344C115.708 117.151 114.442 118.215 112.999 118.573C112.921 118.544 112.838 118.516 112.758 118.487C112.689 118.538 112.618 118.589 112.551 118.639C111.066 118.715 109.546 118.063 108.262 117.608C103.078 115.693 94.5617 116.003 92.4577 121.07C88.5378 131.728 102.72 133.53 106.648 141.542Z" fill="#f7cfda" fill-opacity="0.3"/>
<path d="M94.3506 137.782C91.3662 138.224 89.4256 141.817 90.0163 145.807C90.6069 149.797 93.505 152.673 96.4894 152.231C99.4738 151.789 101.414 148.197 100.824 144.207C100.233 140.217 97.335 137.34 94.3506 137.782Z" fill="#f7cfda" fill-opacity="0.3"/>
<path d="M107.837 150.152C104.522 150.642 102.367 154.632 103.023 159.064C103.679 163.495 106.898 166.69 110.212 166.199C113.527 165.708 115.682 161.718 115.026 157.287C114.37 152.856 111.152 149.661 107.837 150.152Z" fill="#f7cfda" fill-opacity="0.3"/>
<path d="M135.333 131.316C132.348 131.758 130.408 135.35 130.998 139.34C131.589 143.33 134.487 146.207 137.472 145.765C140.456 145.323 142.397 141.731 141.806 137.741C141.215 133.751 138.317 130.874 135.333 131.316Z" fill="#f7cfda" fill-opacity="0.3"/>
<path d="M126.066 147.453C122.752 147.944 120.596 151.934 121.252 156.365C121.908 160.797 125.127 163.991 128.442 163.501C131.756 163.01 133.912 159.02 133.256 154.589C132.6 150.157 129.381 146.963 126.066 147.453Z" fill="#f7cfda" fill-opacity="0.3"/>
</g>
<g clip-path="url(#clip11_47_30)">
<path d="M46.8233 99.263C47.9365 99.6631 49.1087 99.9081 50.2917 99.9139C50.3008 99.9139 50.3099 99.914 50.319 99.9139C52.8416 99.9192 55.4722 99.132 57.0602 97.0598C57.0739 97.0419 57.0835 97.0221 57.097 97.0041C57.1109 96.9864 57.1275 96.972 57.1412 96.9541C58.7293 94.8819 58.8054 92.1371 58.1445 89.7026C58.1421 89.6939 58.1397 89.6851 58.1373 89.6763C57.8241 88.5355 57.2828 87.4674 56.607 86.4965C52.255 80.2439 56.7885 68.9113 47.2088 67.4194C42.5541 66.8892 38.7931 73.1177 38.0737 77.7808C37.8809 78.9277 37.7374 80.3321 37.0657 81.4095C37.0004 81.4383 36.9324 81.4703 36.8661 81.5001C36.8545 81.5719 36.8413 81.6458 36.8305 81.7163C35.9648 82.6451 34.646 83.1488 33.5887 83.6331C29.2731 85.5402 24.2366 90.7913 25.9588 95.1481C29.8901 104.01 39.6543 96.6863 46.8233 99.263Z" fill="#f7cfda" fill-opacity="0.3"/>
<path d="M37.051 104.267C35.4843 106.311 36.4299 109.666 39.1632 111.761C41.8964 113.856 45.3823 113.896 46.9491 111.852C48.5158 109.808 47.5702 106.452 44.8369 104.358C42.1037 102.263 38.6178 102.222 37.051 104.267Z" fill="#f7cfda" fill-opacity="0.3"/>
<path d="M52.6686 103.834C50.9285 106.104 51.9788 109.831 55.0145 112.157C58.0502 114.484 61.9217 114.529 63.6618 112.258C65.4019 109.988 64.3517 106.261 61.316 103.935C58.2803 101.608 54.4087 101.563 52.6686 103.834Z" fill="#f7cfda" fill-opacity="0.3"/>
<path d="M58.3283 75.9473C56.7615 77.9917 57.7071 81.3471 60.4404 83.4417C63.1737 85.5364 66.6595 85.5771 68.2263 83.5326C69.793 81.4882 68.8474 78.1328 66.1141 76.0382C63.3809 73.9435 59.895 73.9028 58.3283 75.9473Z" fill="#f7cfda" fill-opacity="0.3"/>
<path d="M62.2387 91.3458C60.4985 93.6164 61.5488 97.3431 64.5845 99.6695C67.6202 101.996 71.4917 102.041 73.2318 99.7705C74.972 97.4998 73.9217 93.7732 70.886 91.4468C67.8503 89.1204 63.9788 89.0752 62.2387 91.3458Z" fill="#f7cfda" fill-opacity="0.3"/>
</g>
<defs>
<clipPath id="clip0_47_30">
<rect width="23.3067" height="22.4816" fill="white" transform="translate(416.99 560.11) rotate(169.574)"/>
</clipPath>
<clipPath id="clip1_47_30">
<rect width="22.8693" height="22.0598" fill="white" transform="translate(357.772 542.689) rotate(135.333)"/>
</clipPath>
<clipPath id="clip2_47_30">
<rect width="32.5065" height="31.3558" fill="white" transform="translate(356.509 505.058) rotate(172.098)"/>
</clipPath>
<clipPath id="clip3_47_30">
<rect width="39.9268" height="38.5135" fill="white" transform="translate(285.151 523.175) rotate(155.967)"/>
</clipPath>
<clipPath id="clip4_47_30">
<rect width="43.2637" height="41.7322" fill="white" transform="translate(231.536 485.17) rotate(-163.753)"/>
</clipPath>
<clipPath id="clip5_47_30">
<rect width="52.4126" height="50.5573" fill="white" transform="translate(176.454 474.476) rotate(147.155)"/>
</clipPath>
<clipPath id="clip6_47_30">
<rect width="63.7115" height="61.4563" fill="white" transform="translate(201.589 420.716) rotate(-165.17)"/>
</clipPath>
<clipPath id="clip7_47_30">
<rect width="63.7115" height="61.4563" fill="white" transform="translate(123.863 363.415) rotate(156.63)"/>
</clipPath>
<clipPath id="clip8_47_30">
<rect width="78.4454" height="75.6686" fill="white" transform="translate(219.636 300.968) rotate(167.828)"/>
</clipPath>
<clipPath id="clip9_47_30">
<rect width="72.9622" height="70.3795" fill="white" transform="translate(125.361 225.433) rotate(136.952)"/>
</clipPath>
<clipPath id="clip10_47_30">
<rect width="52.4126" height="50.5573" fill="white" transform="translate(145.251 161.013) rotate(171.58)"/>
</clipPath>
<clipPath id="clip11_47_30">
<rect width="44.7478" height="43.1639" fill="white" transform="translate(82.0563 88.2556) rotate(127.465)"/>
</clipPath>
</defs>
</svg>
