<?xml version="1.0" encoding="UTF-8"?>
<svg version="1.1" xmlns="http://www.w3.org/2000/svg" width="384" height="321">
<path d="M0 0 C0.86512711 -0.01283524 1.73025421 -0.02567047 2.62159729 -0.03889465 C3.55076462 -0.04628159 4.47993195 -0.05366852 5.43725586 -0.0612793 C6.40432968 -0.06935104 7.3714035 -0.07742279 8.36778259 -0.08573914 C10.41623147 -0.09956183 12.46470321 -0.11029209 14.51318359 -0.11816406 C16.59333109 -0.12965123 18.67344988 -0.15005086 20.75341797 -0.1796875 C36.28953768 -0.4009434 48.77713906 -0.12187336 60.58959961 11.17700195 C70.3047341 21.52698682 72.74267616 32.49892782 72.7300415 46.30874634 C72.73301263 47.32629419 72.73598375 48.34384204 72.7390449 49.39222467 C72.74771358 52.80047258 72.74923861 56.2086853 72.75073242 59.61694336 C72.75536191 62.06138178 72.76038675 64.50581948 72.76577759 66.95025635 C72.77889151 73.5909922 72.7853817 80.23171431 72.78978825 86.87245989 C72.79255529 91.02314284 72.79679351 95.17382347 72.80129242 99.32450485 C72.81348215 110.82830216 72.82378176 122.33209763 72.82716751 133.83590126 C72.82749686 134.93941127 72.82749686 134.93941127 72.82783286 136.06521442 C72.82816028 137.17128875 72.82816028 137.17128875 72.82849431 138.29970801 C72.82893777 139.79379948 72.82938433 141.28789095 72.82983398 142.78198242 C72.83005541 143.52309538 72.83027684 144.26420834 72.83050498 145.02777927 C72.83445025 157.02765876 72.85189731 169.02747744 72.87519351 181.02733345 C72.89894688 193.36279913 72.91137119 205.69823433 72.91253543 218.03372324 C72.91345 224.95339992 72.91914708 231.87299736 72.93735504 238.79265213 C72.95443103 245.30483533 72.95597892 251.81690853 72.94721603 258.32910919 C72.94644699 260.71388781 72.95077077 263.09867459 72.96067429 265.48343277 C73.08728385 297.88149371 73.08728385 297.88149371 60.63647461 311.27856445 C54.42854903 317.02211765 47.22037557 321.24537821 38.63427734 321.36987305 C37.12141396 321.39396744 37.12141396 321.39396744 35.57798767 321.41854858 C30.95059983 321.46320232 26.32335415 321.50409397 21.69580078 321.52709961 C19.26243498 321.54361677 16.82911683 321.57085007 14.39599609 321.60913086 C10.87564075 321.66420001 7.35642283 321.68582406 3.83569336 321.70043945 C2.75928085 321.72310883 1.68286835 321.7457782 0.57383728 321.76913452 C-10.05922789 321.73973085 -17.72455872 317.62762084 -25.37133789 310.3996582 C-38.03840069 296.59207443 -36.84758772 279.58504505 -36.79858398 262.0559082 C-36.80265357 259.61058315 -36.80799762 257.16525994 -36.81451416 254.71994019 C-36.82673455 248.78988799 -36.82499997 242.85994054 -36.81627624 236.92989135 C-36.80947696 232.10666328 -36.80859262 227.28346709 -36.81184769 222.4602356 C-36.81230739 221.77148584 -36.81276708 221.08273608 -36.81324071 220.37311512 C-36.81419997 218.9735523 -36.81517262 217.57398948 -36.81615849 216.17442667 C-36.82469528 203.07754985 -36.8149052 189.98073622 -36.79875739 176.88386977 C-36.78535576 165.66742127 -36.78768433 154.45106595 -36.80151367 143.23461914 C-36.81759982 130.18181674 -36.82387147 117.12906959 -36.81467688 104.07625866 C-36.81372132 102.68209522 -36.81277821 101.28793177 -36.81184769 99.89376831 C-36.81138486 99.20796914 -36.81092203 98.52216997 -36.81044518 97.81558901 C-36.80786438 93.00303248 -36.81220657 88.19051126 -36.81928635 83.37796021 C-36.82862139 76.89030178 -36.82189251 70.40277735 -36.80460358 63.91513443 C-36.80065086 61.54003312 -36.80175185 59.16491695 -36.80839157 56.78982162 C-36.89028232 24.51043647 -36.89028232 24.51043647 -25.37133789 11.9543457 C-18.32217502 5.29126772 -9.89568665 0.12862478 0 0 Z " fill="#B88891" transform="translate(93.410400390625,-0.177001953125)"/>
<path d="M0 0 C0.86512711 -0.01283524 1.73025421 -0.02567047 2.62159729 -0.03889465 C3.55076462 -0.04628159 4.47993195 -0.05366852 5.43725586 -0.0612793 C6.40432968 -0.06935104 7.3714035 -0.07742279 8.36778259 -0.08573914 C10.41623147 -0.09956183 12.46470321 -0.11029209 14.51318359 -0.11816406 C16.59333109 -0.12965123 18.67344988 -0.15005086 20.75341797 -0.1796875 C36.30047489 -0.40109916 48.76244321 -0.11357268 60.58959961 11.17700195 C70.73505218 21.80461465 72.74332108 34.05303912 72.7300415 48.26368713 C72.73301263 49.26434407 72.73598375 50.265001 72.7390449 51.29598087 C72.74770014 54.64117678 72.74923747 57.98633676 72.75073242 61.33154297 C72.75536288 63.7334755 72.76038785 66.13540731 72.76577759 68.53733826 C72.77888257 75.05831565 72.78538019 81.5792862 72.78978825 88.10027432 C72.79255709 92.17777654 72.79679564 96.2552764 72.80129242 100.33277702 C72.81348104 111.63845069 72.82378074 122.94412249 72.82716751 134.24980259 C72.82749686 135.33394957 72.82749686 135.33394957 72.82783286 136.4399985 C72.82816028 137.52663462 72.82816028 137.52663462 72.82849431 138.63522297 C72.82893776 140.10300672 72.82938433 141.57079047 72.82983398 143.03857422 C72.83005541 143.7666346 72.83027684 144.49469497 72.83050498 145.24481779 C72.83444915 157.02988773 72.85189334 168.81489571 72.87519351 180.59994174 C72.89896257 192.72074641 72.9113719 204.84152006 72.91253543 216.9623484 C72.91344914 223.75911363 72.91912435 230.55579811 72.93735504 237.35254097 C72.95388489 243.75067128 72.95596732 250.14864887 72.94721603 256.54679298 C72.94644826 258.8871934 72.95075384 261.2276022 72.96067429 263.56798172 C73.09764547 297.91237679 73.09764547 297.91237679 60.63647461 311.27075195 C54.44188258 317.02635714 47.21582256 321.24544422 38.63427734 321.36987305 C37.12141396 321.39396744 37.12141396 321.39396744 35.57798767 321.41854858 C30.95059983 321.46320232 26.32335415 321.50409397 21.69580078 321.52709961 C19.26243498 321.54361677 16.82911683 321.57085007 14.39599609 321.60913086 C10.87564075 321.66420001 7.35642283 321.68582406 3.83569336 321.70043945 C2.75928085 321.72310883 1.68286835 321.7457782 0.57383728 321.76913452 C-10.05922789 321.73973085 -17.72455872 317.62762084 -25.37133789 310.3996582 C-38.03840069 296.59207443 -36.84758772 279.58504505 -36.79858398 262.0559082 C-36.80265357 259.61058315 -36.80799762 257.16525994 -36.81451416 254.71994019 C-36.82673455 248.78988799 -36.82499997 242.85994054 -36.81627624 236.92989135 C-36.80947696 232.10666328 -36.80859262 227.28346709 -36.81184769 222.4602356 C-36.81230739 221.77148584 -36.81276708 221.08273608 -36.81324071 220.37311512 C-36.81419997 218.9735523 -36.81517262 217.57398948 -36.81615849 216.17442667 C-36.82469528 203.07754985 -36.8149052 189.98073622 -36.79875739 176.88386977 C-36.78535576 165.66742127 -36.78768433 154.45106595 -36.80151367 143.23461914 C-36.81759982 130.18181674 -36.82387147 117.12906959 -36.81467688 104.07625866 C-36.81372132 102.68209522 -36.81277821 101.28793177 -36.81184769 99.89376831 C-36.81138486 99.20796914 -36.81092203 98.52216997 -36.81044518 97.81558901 C-36.80786438 93.00303248 -36.81220657 88.19051126 -36.81928635 83.37796021 C-36.82862139 76.89030178 -36.82189251 70.40277735 -36.80460358 63.91513443 C-36.80065086 61.54003312 -36.80175185 59.16491695 -36.80839157 56.78982162 C-36.89028232 24.51043647 -36.89028232 24.51043647 -25.37133789 11.9543457 C-18.32217502 5.29126772 -9.89568665 0.12862478 0 0 Z " fill="#B88992" transform="translate(254.410400390625,-0.177001953125)"/>
</svg>
