<?xml version="1.0" encoding="UTF-8"?>
<svg version="1.1" xmlns="http://www.w3.org/2000/svg" width="384" height="326">
<path d="M0 0 C0.73863281 -0.01998047 1.47726563 -0.03996094 2.23828125 -0.06054688 C12.39404133 -0.05174639 20.49714207 4.97170225 28.8125 10.3125 C30.6660749 11.48140766 32.52026318 12.64934312 34.375 13.81640625 C35.32375 14.41598145 36.2725 15.01555664 37.25 15.63330078 C41.90700615 18.5557936 46.61001931 21.40147557 51.3125 24.25 C59.49803027 29.21968721 67.66156731 34.22378606 75.8125 39.25 C84.89474817 44.84914799 94.00000554 50.4084536 103.125 55.9375 C113.33853394 62.12611779 123.52225221 68.3611513 133.6875 74.62890625 C140.65267635 78.9216946 147.63228857 83.18972656 154.625 87.4375 C163.78967587 93.00464904 172.92512451 98.61798726 182.05126953 104.24804688 C187.87839692 107.83850787 193.71651107 111.40893448 199.57421875 114.94921875 C200.1961058 115.32536819 200.81799286 115.70151764 201.45872498 116.08906555 C204.44908902 117.89737795 207.44112659 119.70280439 210.4362793 121.50317383 C240.97854002 139.95123161 240.97854002 139.95123161 244.7421875 154.88671875 C246.26771349 165.05170317 245.46730635 175.06497518 239.4375 183.625 C232.62670315 191.75782892 224.31104649 197.01951213 215.25 202.375 C214.00463754 203.11948873 212.75985632 203.8649505 211.515625 204.61132812 C209.60054927 205.76009721 207.68520776 206.90838115 205.76812744 208.05380249 C199.51747902 211.78975242 193.31883211 215.60819548 187.125 219.4375 C177.56062167 225.3382277 167.96591125 231.1866776 158.35449219 237.01025391 C149.92391874 242.11933969 141.51532117 247.26244789 133.125 252.4375 C123.55993259 258.33712187 113.9659202 264.18667218 104.35449219 270.01025391 C95.92391822 275.11934001 87.51536413 280.26251688 79.125 285.4375 C68.91706552 291.73258737 58.68324909 297.98339342 48.42114258 304.18969727 C42.76005233 307.61467693 37.1116662 311.05765969 31.4921875 314.55078125 C30.44828857 315.19644043 29.40438965 315.84209961 28.32885742 316.50732422 C26.37945952 317.71435732 24.43400669 318.92779574 22.4934082 320.14892578 C12.14018944 326.54003815 1.17728645 328.44244939 -10.8203125 325.78515625 C-20.13001624 322.38521742 -26.76390055 316.58436172 -31.68359375 308.0625 C-34.84199714 301.10365711 -35.16529941 294.97219651 -35.14242554 287.41949463 C-35.14695665 286.31871574 -35.15148776 285.21793685 -35.15615618 284.08380103 C-35.16880366 280.39990005 -35.16717956 276.71614684 -35.16552734 273.03222656 C-35.17151239 270.38897148 -35.17826145 267.74572791 -35.18588257 265.10247803 C-35.20246982 258.6701156 -35.20799109 252.23778983 -35.20910732 245.80540779 C-35.21005893 240.57444697 -35.21417482 235.34349821 -35.22050858 230.1125412 C-35.23811517 215.26848174 -35.24734842 200.42445116 -35.24584763 185.58038118 C-35.24576772 184.78074016 -35.2456878 183.98109913 -35.24560547 183.15722656 C-35.24552371 182.3566045 -35.24544195 181.55598244 -35.24535771 180.7310991 C-35.24454508 167.76060681 -35.26367828 154.79023072 -35.2918822 141.81977203 C-35.32064049 128.48873275 -35.33442086 115.15775007 -35.33269465 101.82667899 C-35.33203174 94.34756037 -35.33748041 86.86856357 -35.35905075 79.38947296 C-35.37730143 73.02078764 -35.38157819 66.65227935 -35.3680319 60.28357914 C-35.36152152 57.0375482 -35.36350708 53.79192535 -35.3787384 50.5459137 C-35.3942165 47.01812185 -35.38486451 43.49121331 -35.36947632 39.96343994 C-35.37976344 38.9497 -35.39005057 37.93596005 -35.40064943 36.89150071 C-35.2934629 25.72601572 -31.5882854 16.50878599 -23.875 8.4375 C-16.9623093 2.18167131 -9.1832083 -0.08723255 0 0 Z " fill="#B78992" transform="translate(111.875,-0.4375)"/>
</svg>
