<?xml version="1.0" encoding="UTF-8"?>
<svg version="1.1" xmlns="http://www.w3.org/2000/svg" width="320" height="224">
<path d="M0 0 C1.87802023 1.58437276 3.71169214 3.22199178 5.51199341 4.89414978 C6.03292954 5.37783301 6.55386566 5.86151625 7.09058774 6.35985655 C13.03388105 11.91088642 18.80144801 17.63793716 24.55810547 23.38110352 C25.76177236 24.57848433 26.96562003 25.77568343 28.16963196 26.97271729 C32.0722982 30.85462601 35.96988842 34.74161037 39.8671875 38.62890625 C41.21918878 39.97685178 42.57122071 41.32476658 43.92328262 42.67265129 C50.26896475 48.99935798 56.61228462 55.32842133 62.95267475 61.66043144 C70.24080222 68.93876206 77.53716355 76.20870787 84.84051025 83.47176605 C90.51154897 89.11260143 96.17484834 94.76113287 101.83245957 100.41543525 C105.20120299 103.78183673 108.57312024 107.14490164 111.95330429 110.4998188 C115.12888428 113.65203339 118.29470425 116.81373888 121.45349693 119.98277283 C122.6085268 121.1382958 123.76693662 122.29045253 124.9290905 123.43881035 C135.5950641 133.98527931 142.29885898 142.57981129 142.3894043 158.01855469 C142.27507372 164.69652992 140.92464658 169.50549479 137 175 C136.278125 176.0725 135.55625 177.145 134.8125 178.25 C125.04983746 187.79571449 114.15071611 189.31412666 100.99414062 189.25396729 C99.39932232 189.25864726 99.39932232 189.25864726 97.77228546 189.26342177 C94.23354945 189.27135622 90.69498709 189.26509588 87.15625 189.25878906 C84.60945536 189.26150094 82.06266151 189.26506298 79.51586914 189.26940918 C73.3308888 189.27756784 67.14597205 189.27639345 60.96099091 189.2705839 C55.93175356 189.26605658 50.90252981 189.26545912 45.87329102 189.26763153 C45.15593922 189.267938 44.43858743 189.26824446 43.6994977 189.26856022 C42.24195035 189.2691997 40.784403 189.26984813 39.32685566 189.2705054 C25.67782025 189.27620066 12.02881176 189.26966344 -1.62021923 189.25890467 C-13.31713879 189.24996989 -25.01401865 189.25152215 -36.7109375 189.26074219 C-50.31304833 189.27145905 -63.9151356 189.27565141 -77.51725006 189.26951766 C-78.96926371 189.2688806 -80.42127736 189.26825186 -81.87329102 189.26763153 C-82.94475852 189.2671687 -82.94475852 189.2671687 -84.03787184 189.26669653 C-89.05772438 189.26497383 -94.0775619 189.26787549 -99.09741211 189.27259064 C-105.86079853 189.27880419 -112.62409866 189.2743441 -119.38748169 189.26280212 C-121.86662675 189.26016228 -124.34577813 189.26090907 -126.82492065 189.26532745 C-130.21474508 189.27081093 -133.60433128 189.26391463 -136.99414062 189.25396729 C-138.45768604 189.26065945 -138.45768604 189.26065945 -139.95079803 189.26748681 C-150.50799935 189.20760053 -159.55023204 187.66340762 -168 181 C-175.68125603 173.05885185 -178.56549463 165.25761497 -178.40356445 154.4152832 C-178.08919588 145.00152135 -175.54901084 139.43419314 -169.10110474 132.48617554 C-168.37540336 131.70413146 -168.37540336 131.70413146 -167.63504136 130.9062885 C-162.11360271 124.99179943 -156.41289465 119.25706124 -150.69482422 113.53369141 C-149.50566327 112.33988652 -148.31669405 111.14589061 -147.12789917 109.95172119 C-143.93631149 106.74717376 -140.74153639 103.54582413 -137.5457015 100.34551287 C-135.54355674 98.34041533 -133.5419911 96.33474138 -131.54059219 94.32889938 C-125.26113141 88.03581767 -118.97971204 81.7447009 -112.69537914 75.45648444 C-105.47071996 68.22733368 -98.2526728 60.99166497 -91.04022586 53.75033057 C-85.43928025 48.12773902 -79.83255441 42.51095416 -74.2214433 36.89850748 C-70.88041429 33.55643414 -67.54182305 30.21201211 -64.20925522 26.86149979 C-61.0786766 23.71438611 -57.94094566 20.57458039 -54.79771805 17.44010162 C-53.65071962 16.29387019 -52.5062476 15.14510375 -51.36460876 13.99353409 C-37.61868764 0.13513883 -19.3811206 -12.06712544 0 0 Z " fill="#B78891" transform="translate(178,20)"/>
</svg>
