<svg width="24" height="25" viewBox="0 0 24 25" fill="none" xmlns="http://www.w3.org/2000/svg">
<path d="M0.719999 20.42L8.64 12.5L0.719999 4.58C-0.24 3.62 -0.24 2.18 0.719999 1.22C1.68 0.26 3.12 0.26 4.08 1.22L13.68 10.82C14.64 11.78 14.64 13.22 13.68 14.18L4.08 23.78C3.6 24.26 3.12 24.5 2.4 24.5C1.68 24.5 1.2 24.26 0.719999 23.78C-0.24 22.82 -0.24 21.38 0.719999 20.42ZM21.6 0.5C23.04 0.5 24 1.46 24 2.9V22.1C24 23.54 23.04 24.5 21.6 24.5C20.16 24.5 19.2 23.54 19.2 22.1V2.9C19.2 1.46 20.16 0.5 21.6 0.5Z" fill="#C696A6"/>
</svg>
