<svg width="21" height="28" viewBox="0 0 21 28" fill="none" xmlns="http://www.w3.org/2000/svg">
<path d="M9.16248 0.149958C16.6628 5.24562 20.3861 8.93594 20.3861 11.6113C20.3861 14.1999 18.9634 16.2958 16.2291 17.8278C15.4726 18.2528 14.6294 17.4252 15.0406 16.6618C15.7468 15.3467 15.5143 13.8737 14.2408 12.1214C12.8979 10.2736 10.9617 8.929 8.40255 8.08233C8.22928 8.02502 8.07849 7.91453 7.97165 7.76656C7.8648 7.6186 7.80734 7.44071 7.80745 7.25821V0.866509C7.80763 0.708928 7.85073 0.554373 7.93212 0.419438C8.01351 0.284504 8.13011 0.174287 8.26941 0.100623C8.40872 0.0269582 8.56545 -0.00737107 8.72279 0.00132092C8.88013 0.0100129 9.03214 0.0613977 9.16248 0.149958ZM5.63871 28C2.56778 28 0 26.0169 0 23.4457C0 20.8744 2.56778 18.8913 5.63871 18.8913C8.70964 18.8913 11.2774 20.8744 11.2774 23.4457C11.2774 26.0169 8.70964 28 5.63871 28Z" fill="#C696A6"/>
<path d="M9.54254 4.14392C10.0027 4.14392 10.444 4.32671 10.7694 4.65209C11.0947 4.97746 11.2775 5.41876 11.2775 5.87891V23.2288C11.2775 23.6889 11.0947 24.1302 10.7694 24.4556C10.444 24.781 10.0027 24.9638 9.54254 24.9638C9.08239 24.9638 8.64109 24.781 8.31572 24.4556C7.99035 24.1302 7.80755 23.6889 7.80755 23.2288V5.87891C7.80755 5.41876 7.99035 4.97746 8.31572 4.65209C8.64109 4.32671 9.08239 4.14392 9.54254 4.14392Z" fill="#C696A6"/>
</svg>
