<svg width="15" height="17" viewBox="0 0 15 17" fill="none" xmlns="http://www.w3.org/2000/svg">
<path d="M11.5909 16.5C11.2255 16.5 10.9068 16.3671 10.635 16.1013C10.3632 15.8356 10.2273 15.524 10.2273 15.1667V1.83333C10.2273 1.476 10.3632 1.16444 10.635 0.898666C10.9068 0.632889 11.2255 0.5 11.5909 0.5H13.6364C14.0018 0.5 14.3205 0.632889 14.5923 0.898666C14.8641 1.16444 15 1.476 15 1.83333V15.1667C15 15.524 14.8641 15.8356 14.5923 16.1013C14.3205 16.3671 14.0018 16.5 13.6364 16.5H11.5909ZM1.36364 16.5C0.998182 16.5 0.679545 16.3671 0.407727 16.1013C0.135909 15.8356 0 15.524 0 15.1667V1.83333C0 1.476 0.135909 1.16444 0.407727 0.898666C0.679545 0.632889 0.998182 0.5 1.36364 0.5H3.40909C3.77455 0.5 4.09318 0.632889 4.365 0.898666C4.63682 1.16444 4.77273 1.476 4.77273 1.83333V15.1667C4.77273 15.524 4.63682 15.8356 4.365 16.1013C4.09318 16.3671 3.77455 16.5 3.40909 16.5H1.36364Z" fill="#C696A6"/>
</svg>
