<svg width="15" height="17" viewBox="0 0 15 17" fill="none" xmlns="http://www.w3.org/2000/svg">
<path d="M1.48152 0.588933C1.38283 0.53168 1.27042 0.501005 1.15569 0.500024C1.04096 0.499044 0.928017 0.527793 0.828322 0.583351C0.728627 0.638909 0.645737 0.719295 0.588072 0.816346C0.530406 0.913396 0.50002 1.02365 0.5 1.13591V15.8641C0.50002 15.9763 0.530406 16.0866 0.588072 16.1837C0.645737 16.2807 0.728627 16.3611 0.828322 16.4166C0.928017 16.4722 1.04096 16.501 1.15569 16.5C1.27042 16.499 1.38283 16.4683 1.48152 16.4111L14.1817 9.04698C14.2787 8.99066 14.359 8.91062 14.4148 8.81472C14.4707 8.71882 14.5 8.61036 14.5 8.5C14.5 8.38964 14.4707 8.28118 14.4148 8.18528C14.359 8.08938 14.2787 8.00934 14.1817 7.95302L1.48152 0.588933Z" fill="#C696A6"/>
</svg>
