<svg width="24" height="25" viewBox="0 0 24 25" fill="none" xmlns="http://www.w3.org/2000/svg">
<path d="M23.28 20.42L15.36 12.5L23.28 4.58C24.24 3.62 24.24 2.18 23.28 1.22C22.32 0.26 20.88 0.26 19.92 1.22L10.32 10.82C9.36 11.78 9.36 13.22 10.32 14.18L19.92 23.78C20.4 24.26 20.88 24.5 21.6 24.5C22.32 24.5 22.8 24.26 23.28 23.78C24.24 22.82 24.24 21.38 23.28 20.42ZM2.4 0.5C0.96 0.5 0 1.46 0 2.9V22.1C0 23.54 0.96 24.5 2.4 24.5C3.84 24.5 4.8 23.54 4.8 22.1V2.9C4.8 1.46 3.84 0.5 2.4 0.5Z" fill="#C696A6"/>
</svg>
