<?xml version="1.0" encoding="UTF-8"?>
<svg id="_圖層_1" data-name="圖層_1" xmlns="http://www.w3.org/2000/svg" version="1.1" viewBox="0 0 381 396">
  <!-- Generator: Adobe Illustrator 29.1.0, SVG Export Plug-In . SVG Version: 2.1.0 Build 142)  -->
  <defs>
    <style>
      .st0 {
        fill: #fce2ca;
      }

      .st0, .st1 {
        fill-rule: evenodd;
      }

      .st1 {
        fill: #ffdce3;
      }
    </style>
  </defs>
  <path class="st1" d="M281,198c-4.6,28-26.4,48.5-47.7,68.9-22.2,21.3-43.8,44.8-75.4,49.2-36.6,5.1-76.5-.8-103.7-24-28.2-24-35-60.9-37.2-96.2-2.5-38.7-9.5-86.2,23.9-109.6,32.9-23.1,77.7,5.8,118.8,9.3,34.8,3,74.4-12.1,100.2,9.7,26.3,22.2,26.5,60.3,21.1,92.8Z"/>
  <path class="st0" d="M366,249.3c4.3,18.3-5.1,37.7-19.1,51-14.1,13.3-34.3,20.2-54.2,18.3-18.3-1.8-31.8-15-44.2-27.8-11.6-12-22.1-25.4-23-41.7-1-17.1,6.1-33.5,18.1-46.4,12.9-13.9,30-29.4,49.3-26.1,18.7,3.2,21.3,27.3,34.4,40.3,12.4,12.3,34.8,15.9,38.7,32.5Z"/>
</svg>