<?xml version="1.0" encoding="UTF-8"?>
<svg id="_圖層_1" data-name="圖層_1" xmlns="http://www.w3.org/2000/svg" version="1.1" viewBox="0 0 381 396">
  <!-- Generator: Adobe Illustrator 29.1.0, SVG Export Plug-In . SVG Version: 2.1.0 Build 142)  -->
  <defs>
    <style>
      .st0 {
        fill: #fce2ca;
      }

      .st0, .st1 {
        fill-rule: evenodd;
      }

      .st1 {
        fill: #ffdce3;
      }
    </style>
  </defs>
  <path class="st1" d="M158.3,46.9c45.6-8,92.5,9.3,128.7,34.5,37.4,26.1,76.5,62.8,68.6,103.1-7.5,38.5-68.4,45.1-102.6,71-26.4,20-37.4,55.1-72.1,61.2-37.5,6.6-75.2-9.5-105.3-30-31.6-21.5-61-49.7-62.2-83.9-1.1-33.4,32.1-57.2,56.4-83.3,26.4-28.4,46.6-65.3,88.5-72.6Z"/>
  <path class="st0" d="M195.9,267.9c2.1-28.7,19.6-56.7,52.7-63.2,34.3-6.7,67.1,10.8,87.4,35.7,25.4,31.3,51.9,72.3,23.1,100.2-28.7,27.7-80.5,11-120-6.6-29.2-13-45.2-38.7-43.2-66.2Z"/>
</svg>