<?xml version="1.0" encoding="UTF-8"?>
<svg id="_圖層_1" data-name="圖層_1" xmlns="http://www.w3.org/2000/svg" version="1.1" viewBox="0 0 381 396">
  <!-- Generator: Adobe Illustrator 29.1.0, SVG Export Plug-In . SVG Version: 2.1.0 Build 142)  -->
  <defs>
    <style>
      .st0 {
        fill: #fce2ca;
      }

      .st0, .st1 {
        fill-rule: evenodd;
      }

      .st1 {
        fill: #ffdce3;
      }
    </style>
  </defs>
  <path class="st1" d="M220,51.1c37.1,2.6,80.2-11.2,105,21.1,26.1,33.9,26.6,89.1,16.5,136.8-9.3,43.8-37.2,76.9-67.5,103.5-28.5,25-61.1,41.7-94.5,38.6-34.2-3.2-61.9-26.5-85.6-55.5-28.6-35.1-66.1-72-60.5-123.7,5.6-52.2,47.7-89.2,86.2-114.1,31.7-20.5,65.9-9.2,100.5-6.8Z"/>
  <path class="st0" d="M260.4,262.4c16.1-10.7,37.8-7.9,54.6.1,16.2,7.7,27.5,23.1,31.6,40.7,3.7,15.7-4.4,31.1-11.3,46.1-6.8,14.7-13.2,30.5-27.6,37.9-15.4,7.9-33.3,7.3-49.1,1.6-16.7-6-35.1-15.5-38.8-33-3.4-16.7,15.7-29.1,22.6-45.1,7.1-16.4,3.1-38.3,18-48.2Z"/>
</svg>