<?xml version="1.0" encoding="UTF-8"?>
<svg id="_圖層_1" data-name="圖層_1" xmlns="http://www.w3.org/2000/svg" version="1.1" viewBox="0 0 381 396">
  <!-- Generator: Adobe Illustrator 29.1.0, SVG Export Plug-In . SVG Version: 2.1.0 Build 142)  -->
  <defs>
    <style>
      .st0 {
        fill: #fce2ca;
      }

      .st0, .st1 {
        fill-rule: evenodd;
      }

      .st1 {
        fill: #ffdce3;
      }
    </style>
  </defs>
  <path class="st1" d="M173.2.2c41.8,3,61,48.2,90.8,76.3,30.2,28.5,74.1,46.9,82.1,86.7,9.1,45.3-7.9,92.5-39.2,127.6-33.9,38-81.6,63.2-133.8,66.4-55.5,3.4-122.6-3.8-152.2-48.8-28.4-43.2,15.2-95.1,24.7-145.2,6.7-35.1-.3-72.1,22-100.6C93.4,29.7,130.3-2.8,173.2.2Z"/>
  <path class="st0" d="M292.3,269c19,0,33.8,12.6,46.3,24.6,11.4,11,16.1,24.4,19.5,38.6,4.7,19.7,20.4,43.7,3.4,57.8-17,14.1-45.3-1.2-69.2-3.1-19.9-1.6-42.3,4.3-57.1-7-15.1-11.5-17-30.7-14.9-47.7,1.9-15.3,12.8-27.8,25.4-38.9,13.1-11.5,27.5-24.4,46.6-24.4Z"/>
</svg>