<?xml version="1.0" encoding="UTF-8"?>
<svg id="_圖層_2" data-name="圖層 2" xmlns="http://www.w3.org/2000/svg" viewBox="0 0 112.17 94.42">
  <g id="_圖層_2-2" data-name="圖層 2">
    <g>
      <path d="M69.57,94.42c-1.98,0-3.9-.68-5.58-1.99-2.16-1.69-5-3.62-7.75-3.54-.03,0-.05,0-.07,0-2.75-.09-5.58,1.85-7.74,3.54-2.33,1.82-5.13,2.42-7.89,1.68-3.3-.88-6.24-3.6-7.67-7.09-1.27-3.11-1.49-6.4-1.7-9.59-.2-2.96-.38-5.76-1.35-8.39-.88-2.38-1.94-4.76-2.98-7.05-1.25-2.77-2.53-5.63-3.53-8.6-.51-1.52-.95-3.01-1.34-4.47-.05.13-.09.25-.14.38-.57,1.65-.68,3.45-.79,5.36-.15,2.47-.3,5.03-1.52,7.38-.78,1.49-1.62,2.35-2.59,2.65-.65.2-1.31.12-1.93-.22-.94-.52-1.42-1.48-1.77-2.18l-.06-.12c-.44-.89-.86-1.84-1.26-2.83-.88-2.18-1.61-4.44-2.32-6.62-.69-2.14-1.41-4.36-2.26-6.46-.82-2.03-1.9-3.87-3.03-5.82-1.09-1.86-2.21-3.79-3.08-5.88-1.8-4.31-1.59-8.43.6-11.58,1.84-2.65,4.51-4.39,7.09-6.08.48-.32.94-.62,1.4-.92,1.9-1.29,3.71-2.83,5.45-4.32,1.43-1.22,2.9-2.48,4.45-3.63,3.61-2.66,7.08-4.05,10.6-4.24,2.31-.13,4.48.3,6.33,1.23,3.89-2.36,8.17-3.89,12.73-4.55,2.07-.3,4.2-.45,6.33-.45,0,0,0,0,0,0,2.13,0,4.26.15,6.33.45,4.57.66,8.85,2.19,12.73,4.55,1.85-.93,4.02-1.35,6.33-1.23,3.52.19,6.99,1.58,10.6,4.24,1.55,1.14,3.03,2.41,4.45,3.63,1.74,1.49,3.54,3.03,5.45,4.32.3.2.61.41.91.61,2.64,1.76,5.38,3.59,7.33,6.4,0,0,0,0,0,0,2.19,3.16,2.41,7.27.6,11.58-.86,2.07-1.92,3.98-2.94,5.83-1.08,1.96-2.1,3.82-2.94,5.87-.85,2.1-1.57,4.32-2.26,6.46-.71,2.18-1.44,4.44-2.32,6.62-.4.99-.82,1.94-1.26,2.82l-.07.13c-.35.7-.83,1.65-1.77,2.17-.62.34-1.29.42-1.93.22-.97-.29-1.81-1.16-2.59-2.65-1.22-2.35-1.38-4.9-1.52-7.38-.11-1.91-.22-3.71-.8-5.36-.04-.13-.09-.25-.14-.38-.38,1.46-.83,2.95-1.34,4.47-1,2.96-2.29,5.83-3.53,8.6-1.03,2.29-2.1,4.67-2.98,7.05-.97,2.63-1.15,5.42-1.35,8.38-.21,3.19-.43,6.48-1.71,9.59-1.43,3.5-4.37,6.21-7.67,7.09-.77.2-1.54.31-2.3.31ZM56.42,86.5c3.42,0,6.62,2.16,9.04,4.05,1.75,1.37,3.75,1.8,5.8,1.26,2.59-.69,4.92-2.87,6.07-5.69,1.13-2.75,1.32-5.71,1.53-8.85.2-3,.4-6.1,1.49-9.05.91-2.46,1.99-4.87,3.04-7.21,1.22-2.72,2.49-5.53,3.44-8.38.85-2.56,1.53-5.04,2.01-7.38.1-.48.47-.85.95-.94.48-.09.96.12,1.23.53.78,1.22,1.38,2.42,1.81,3.67.68,1.96.8,4.01.92,6,.14,2.32.27,4.52,1.26,6.42.71,1.36,1.17,1.47,1.18,1.47,0,0,.03,0,.07-.03.29-.16.55-.69.79-1.15l.06-.13c.4-.82.8-1.71,1.18-2.65.85-2.1,1.57-4.32,2.26-6.46.71-2.18,1.44-4.44,2.32-6.62.89-2.19,1.99-4.19,3.06-6.13.99-1.79,2.01-3.65,2.82-5.6,1.05-2.5,1.83-6.14-.36-9.3h0c-1.69-2.44-4.12-4.06-6.7-5.77-.31-.21-.61-.41-.92-.62-2.02-1.36-3.87-2.95-5.67-4.49-1.39-1.19-2.83-2.43-4.32-3.52-3.22-2.38-6.27-3.61-9.31-3.78-2.11-.11-4.06.32-5.63,1.25-.39.23-.87.22-1.25-.02-3.76-2.39-7.93-3.93-12.39-4.58-1.96-.28-3.98-.43-5.99-.43,0,0,0,0,0,0-2.02,0-4.03.14-5.99.43-4.47.65-8.64,2.19-12.39,4.58-.38.24-.86.25-1.25.02-1.57-.93-3.52-1.37-5.63-1.25-3.04.17-6.09,1.4-9.31,3.78-1.48,1.09-2.92,2.33-4.32,3.52-1.79,1.54-3.65,3.12-5.67,4.49-.47.32-.96.64-1.43.94-2.39,1.56-4.86,3.18-6.44,5.45-2.19,3.16-1.41,6.8-.36,9.3.81,1.95,1.85,3.72,2.94,5.6,1.13,1.94,2.3,3.94,3.18,6.13.88,2.18,1.61,4.44,2.32,6.62.69,2.14,1.41,4.36,2.26,6.46.38.94.78,1.83,1.19,2.66l.06.12c.23.46.49.99.79,1.15.04.02.06.03.07.03,0,0,.46-.1,1.18-1.47.99-1.89,1.12-4.09,1.26-6.42.12-1.98.24-4.04.92-6,.44-1.26,1.03-2.46,1.81-3.67.26-.41.75-.62,1.23-.53.48.09.85.46.95.94.48,2.34,1.15,4.83,2.01,7.39.96,2.85,2.22,5.66,3.44,8.38,1.05,2.33,2.13,4.74,3.04,7.21,1.09,2.95,1.29,6.05,1.49,9.05.21,3.13.4,6.1,1.53,8.84,1.15,2.82,3.48,5,6.07,5.69,2.05.54,4.05.11,5.8-1.26,2.47-1.93,5.75-4.14,9.25-4.05.07,0,.14,0,.22,0Z" fill="#fff"/>
      <g>
        <path d="M62,65.87c-.31-.08-.63-.14-.95-.19-3.17-.48-15.02-1.38-13.25,5.29.31,1.17,1.06,2.16,1.87,3,1.79,1.85,3.57,3.52,6.09,4.06,4.19.9,13.72-6.56,8.6-11-.68-.59-1.51-.95-2.36-1.17Z" fill="#fff"/>
        <circle cx="38.67" cy="44.12" r="4.29" fill="#fff"/>
        <circle cx="73.5" cy="44.12" r="4.29" fill="#fff"/>
      </g>
    </g>
  </g>
</svg>