<?xml version="1.0" encoding="UTF-8"?>
<svg id="_圖層_2" data-name="圖層 2" xmlns="http://www.w3.org/2000/svg" viewBox="0 0 92.39 113.42">
  <g id="_圖層_2-2" data-name=" 圖層 2">
    <g>
      <path d="M45.87,62.37c.79.02,1.45-.31,1.79-.68.35-.37.39-.75.22-.96-.37-.41-1.2-.31-1.96-.36-.76,0-1.59-.13-1.98.27-.18.2-.15.58.18.97.32.38.97.74,1.75.76Z" fill="#fff"/>
      <path d="M35.09,45.77c-1.45,0-2.62,1.17-2.62,2.62s1.17,2.62,2.62,2.62,2.62-1.17,2.62-2.62-1.17-2.62-2.62-2.62Z" fill="#fff"/>
      <path d="M57.3,51.01c1.45,0,2.62-1.17,2.62-2.62s-1.17-2.62-2.62-2.62-2.62,1.17-2.62,2.62,1.17,2.62,2.62,2.62Z" fill="#fff"/>
      <path d="M57.76,39.56c1.6.06,2.98,0,3.14-.54.16-.52-1.18-1.38-3.06-1.46-1.88-.08-3.29.67-3.17,1.2.11.55,1.49.72,3.09.8Z" fill="#fff"/>
      <path d="M34.62,39.56c1.6-.07,2.97-.25,3.09-.8.12-.53-1.29-1.28-3.17-1.2-1.88.08-3.22.94-3.06,1.46.16.54,1.54.6,3.14.54Z" fill="#fff"/>
      <path d="M42.5,69.35c.73.52,1.91,1.11,3.4,1.16,1.49.07,2.79-.49,3.51-1.08.73-.59.98-1.14.82-1.35-.37-.46-2.11.56-4.25.43-2.15-.1-4.08-.95-4.37-.43-.14.23.17.73.9,1.27Z" fill="#fff"/>
      <path d="M92.22,111.55c-.03-.05-.19-.33-.48-.8-.1-.16-.2-.33-.33-.53-.24-.39-.54-.86-.89-1.39-.17-.27-.36-.55-.56-.84-1.79-2.66-4.57-6.5-8.09-10.37l-2.71-3.06s1.84-14.62,2.98-30.14c.11-1.56.21-3.16.3-4.78.02-.26.05-.51.07-.78.56-7.59.4-15.94-.79-23.9-.03-.19-.04-.37-.07-.56h-.01C78.84,16.37,70.68.54,53.43.54c-3.53,0-5.72-.5-6.78-.53-.05,0-.1,0-.15-.01-.02,0-.08,0-.19,0h-.42s-.1,0-.15.01c-1.06.03-3.29.04-6.78.53C9.46,4.68,8.4,39.42,10.24,64.41c1.14,15.52,2.98,30.14,2.98,30.14l-2.71,3.06C4.26,104.49.33,111.26.17,111.55c-.34.6-.14,1.36.46,1.71.2.11.41.17.62.17.43,0,.85-.22,1.08-.62.1-.18,7.28-12.44,17.26-20.31,2.59,2.58,11.24,9.88,26.32,9.88h.57c.05,0,.1,0,.16,0,.89,0,1.75-.03,2.59-.08.28-.02.54-.05.81-.07.6-.05,1.21-.09,1.79-.16.27-.03.52-.08.78-.12.56-.08,1.13-.15,1.67-.25.37-.07.72-.15,1.08-.23.41-.09.83-.16,1.23-.26.44-.11.84-.23,1.26-.35.3-.08.6-.16.89-.24.52-.16,1.01-.33,1.5-.5.17-.06.34-.11.51-.17,6.44-2.36,10.43-5.81,12.05-7.43,8.25,6.51,14.59,16.02,16.59,19.21.42.67.65,1.06.67,1.1.08.13.18.24.29.33.03.02.06.04.09.06.11.08.23.14.36.18,0,0,.01,0,.02,0,.1.03.21.04.32.04.03,0,.06-.01.1-.01.04,0,.07,0,.11-.01.14-.02.28-.06.42-.14.6-.35.8-1.11.46-1.71ZM46.49,99.86s0,0-.01,0h-.57c-13.54,0-21.65-6.41-24.28-8.9,3.85-2.68,8.04-4.6,12.37-4.92v2.69c0,.69.56,1.25,1.25,1.25s1.25-.56,1.25-1.25h0v-3.46c2.73.96,5.93,1.54,9.7,1.54h0c3.77,0,6.97-.57,9.7-1.54v3.46h0c0,.69.56,1.25,1.25,1.25h0c.69,0,1.25-.56,1.25-1.25v-2.69s.03,0,.04,0c4.31.33,8.49,2.24,12.32,4.91-2.63,2.49-10.73,8.89-24.26,8.89ZM73.71,62.24c-.41-.13-1.01-.32-1.63-.32-.87,0-1.79.37-2.31,1.77-.13.36-.27.86-.44,1.5-.04.16-.09.34-.14.52h-.08c-1.52,5.57-5.58,18.61-22.91,18.61s-21.64-13.9-23.05-19.13c-.17-.64-.31-1.14-.44-1.5-.52-1.4-1.44-1.77-2.31-1.77-.62,0-1.22.19-1.63.32-1.27.4-2.28.71-3.65-.74-1.9-2.02-3.21-6.57-3-10.36.13-2.27.78-4.02,1.83-4.91.7-.59,1.36-.82,2.01-.7,1.41.26,2.66,2.02,3.02,2.67.01.02.03.03.04.05.05.09.12.16.19.23.03.03.05.05.07.08.1.09.22.16.35.2.01,0,.03,0,.04,0,.1.03.19.06.3.07.02,0,.04,0,.06,0,.04,0,.08,0,.12,0,.1,0,.19-.02.29-.05.02,0,.05,0,.07-.01.02,0,.04-.03.06-.03.09-.04.17-.09.25-.15.03-.02.07-.04.1-.07.09-.09.18-.18.24-.3,0,0,0,0,0-.01,0,0,0,0,0,0,.13-.23,9.24-16.26,14.38-22.9l.19.87c2.26,10.21,11.31,17.48,21.77,17.48h11.19c1.55,2.64,2.59,4.46,2.63,4.54,0,0,0,0,0,0,0,0,0,0,0,.01.07.11.15.21.24.3.03.03.06.05.1.07.08.06.16.11.25.15.02,0,.04.03.06.03.02,0,.05,0,.07.01.09.03.19.04.29.05.04,0,.08,0,.12,0,.02,0,.04,0,.06,0,.1,0,.2-.04.3-.07.01,0,.03,0,.04,0,.13-.05.24-.12.35-.2.03-.02.05-.05.07-.08.07-.07.14-.15.19-.23.01-.02.03-.03.04-.05.36-.65,1.61-2.42,3.02-2.67.65-.12,1.31.11,2.01.7,1.05.89,1.7,2.64,1.83,4.91.21,3.79-1.1,8.34-3,10.36-1.37,1.46-2.38,1.14-3.65.74Z" fill="#fff"/>
    </g>
  </g>
</svg>